<?xml version="1.0" encoding="UTF-8"?>
<svg id="Layer_1" data-name="Layer 1" xmlns="http://www.w3.org/2000/svg" xmlns:xlink="http://www.w3.org/1999/xlink" viewBox="0 0 1000 1000">
  <defs>
    <style>
      .cls-1 {
        fill: url(#linear-gradient-2);
      }

      .cls-2 {
        fill: #fff;
      }

      .cls-3 {
        fill: none;
      }

      .cls-4 {
        fill: url(#linear-gradient-4);
      }

      .cls-5 {
        fill: url(#linear-gradient-3);
      }

      .cls-6 {
        fill: #69ffea;
      }

      .cls-7 {
        fill: url(#linear-gradient);
      }
    </style>
    <linearGradient id="linear-gradient" x1="2314.76" y1="374.28" x2="2607.98" y2="388.51" gradientTransform="translate(-2145.81 0)" gradientUnits="userSpaceOnUse">
      <stop offset="0" stop-color="#fff" stop-opacity="0"/>
      <stop offset=".44" stop-color="#cdcdcd" stop-opacity=".49"/>
      <stop offset=".82" stop-color="#a7a7a7" stop-opacity=".86"/>
      <stop offset="1" stop-color="#999"/>
    </linearGradient>
    <linearGradient id="linear-gradient-2" x1="285.5" y1="660.12" x2="538.68" y2="660.12" gradientUnits="userSpaceOnUse">
      <stop offset="0" stop-color="#999"/>
      <stop offset=".04" stop-color="#9f9f9f" stop-opacity=".94"/>
      <stop offset=".28" stop-color="#c1c1c1" stop-opacity=".61"/>
      <stop offset=".5" stop-color="#dbdbdb" stop-opacity=".34"/>
      <stop offset=".7" stop-color="#efefef" stop-opacity=".16"/>
      <stop offset=".87" stop-color="#fafafa" stop-opacity=".04"/>
      <stop offset="1" stop-color="#fff" stop-opacity="0"/>
    </linearGradient>
    <linearGradient id="linear-gradient-3" x1="-5469.91" y1="-1434.58" x2="-5176.69" y2="-1420.34" gradientTransform="translate(-4638.86 -808.86) rotate(-180)" xlink:href="#linear-gradient"/>
    <linearGradient id="linear-gradient-4" x1="-7499.17" y1="-1148.74" x2="-7246" y2="-1148.74" gradientTransform="translate(-6784.67 -808.85) rotate(-180)" xlink:href="#linear-gradient-2"/>
  </defs>
  <circle cx="500" cy="500" r="471.99"/>
  <g>
    <g>
      <path class="cls-3" d="M326.37,533.37c-30.98,0-55.73,27.18-51.65,58.94,3.37,26.26,26.99,45.24,53.46,45.24h128.41v-129.34c-3.35,2.01-6.77,3.9-10.26,5.69-.05.03-.11.05-.16.08-4.6,2.35-9.36,4.44-14.18,6.39-1.2.49-2.41.96-3.63,1.43-4.92,1.87-9.91,3.6-15.03,5.03-.2.05-.4.09-.59.15-4.95,1.37-10.01,2.46-15.13,3.4-1.3.24-2.6.47-3.91.68-5.33.86-10.7,1.55-16.17,1.91-.33.02-.66.01-.99.03-3.67.23-7.37.38-11.1.38h-39.07Z"/>
      <path class="cls-6" d="M434.06,415.27c1.48-1.7,2.88-3.45,4.23-5.25-1.35,1.8-2.75,3.56-4.23,5.25Z"/>
      <path class="cls-6" d="M444.67,400.36c1.09-1.92,2.08-3.9,3.04-5.91-.95,2-1.94,3.99-3.04,5.91Z"/>
      <path class="cls-6" d="M439.73,408.1c1.3-1.83,2.5-3.71,3.67-5.63-1.16,1.92-2.37,3.81-3.67,5.63Z"/>
      <path class="cls-6" d="M456.08,365c.33-3.16.51-6.36.51-9.61,0,3.25-.18,6.45-.51,9.61Z"/>
      <path class="cls-6" d="M454.59,374.37c.47-2.22.79-4.48,1.09-6.76-.31,2.27-.62,4.54-1.09,6.76Z"/>
      <path class="cls-6" d="M448.84,392.11c.87-1.98,1.63-4.02,2.37-6.08-.74,2.05-1.49,4.1-2.37,6.08Z"/>
      <path class="cls-6" d="M452.16,383.42c.66-2.06,1.2-4.17,1.72-6.29-.52,2.12-1.05,4.23-1.72,6.29Z"/>
      <path class="cls-6" d="M388.54,443.48c1.87-.49,3.74-1,5.56-1.6-1.82.61-3.69,1.11-5.56,1.6Z"/>
      <path class="cls-6" d="M379.5,445.36c1.86-.29,3.72-.58,5.55-.98-1.82.4-3.69.69-5.55.98Z"/>
      <path class="cls-6" d="M370.02,446.32c1.9-.09,3.81-.17,5.67-.38-1.87.21-3.77.29-5.67.38Z"/>
      <path class="cls-6" d="M420.84,427.66c1.75-1.34,3.45-2.75,5.09-4.21-1.65,1.46-3.35,2.87-5.09,4.21Z"/>
      <path class="cls-6" d="M413.41,432.8c1.83-1.14,3.61-2.32,5.35-3.58-1.74,1.26-3.53,2.45-5.35,3.58Z"/>
      <path class="cls-6" d="M405.51,437.17c1.88-.92,3.72-1.88,5.52-2.93-1.8,1.04-3.65,2.01-5.52,2.93Z"/>
      <path class="cls-6" d="M397.21,440.74c1.89-.7,3.75-1.44,5.58-2.26-1.82.82-3.69,1.56-5.58,2.26Z"/>
      <path class="cls-6" d="M376.53,532.98c.33-.02.66-.01.99-.03-.33.02-.66.01-.99.03Z"/>
      <path class="cls-6" d="M446.17,513.97c.05-.03.11-.05.16-.08-.05.03-.11.05-.16.08Z"/>
      <path class="cls-6" d="M393.7,531.04c1.31-.21,2.61-.44,3.91-.68-1.3.24-2.6.47-3.91.68Z"/>
      <path class="cls-6" d="M428.36,521.79c1.22-.46,2.42-.94,3.63-1.43-1.2.49-2.41.96-3.63,1.43Z"/>
      <path class="cls-6" d="M432.47,417.02c-1.52,1.65-3.09,3.25-4.72,4.78,1.64-1.53,3.2-3.13,4.72-4.78Z"/>
      <path class="cls-6" d="M412.74,526.96c.2-.05.4-.09.59-.15-.2.05-.4.09-.59.15Z"/>
      <path class="cls-2" d="M413.34,526.81c5.12-1.43,10.11-3.16,15.03-5.03-4.92,1.87-9.91,3.6-15.03,5.03Z"/>
      <path class="cls-2" d="M411.03,434.24c.8-.47,1.59-.95,2.38-1.44-.79.49-1.57.98-2.38,1.44Z"/>
      <path class="cls-2" d="M385.05,444.38c1.18-.26,2.33-.59,3.49-.9-1.16.31-2.31.64-3.49.9Z"/>
      <path class="cls-2" d="M418.76,429.22c.7-.51,1.39-1.03,2.08-1.55-.69.53-1.38,1.04-2.08,1.55Z"/>
      <path class="cls-2" d="M375.69,445.94c1.29-.14,2.54-.38,3.81-.58-1.27.2-2.52.44-3.81.58Z"/>
      <path class="cls-2" d="M402.79,438.48c.92-.42,1.82-.87,2.72-1.31-.9.44-1.8.9-2.72,1.31Z"/>
      <path class="cls-2" d="M394.1,441.88c1.05-.35,2.07-.75,3.11-1.14-1.03.38-2.06.79-3.11,1.14Z"/>
      <path class="cls-2" d="M431.99,520.36c4.82-1.95,9.58-4.04,14.18-6.39-4.6,2.35-9.36,4.44-14.18,6.39Z"/>
      <path class="cls-2" d="M397.61,530.36c5.11-.94,10.18-2.03,15.13-3.4-4.95,1.37-10.01,2.46-15.13,3.4Z"/>
      <path class="cls-2" d="M370.02,446.32c-1.31.06-2.6.19-3.92.2,1.32-.01,2.61-.13,3.92-.2Z"/>
      <path class="cls-2" d="M453.88,377.13c.23-.93.51-1.83.71-2.77-.2.94-.48,1.84-.71,2.77Z"/>
      <path class="cls-2" d="M451.21,386.02c.31-.87.67-1.72.95-2.61-.28.88-.64,1.73-.95,2.61Z"/>
      <path class="cls-2" d="M455.68,367.61c.12-.87.31-1.72.4-2.61-.09.88-.28,1.73-.4,2.61Z"/>
      <path class="cls-2" d="M427.74,421.81c-.59.56-1.2,1.1-1.81,1.64.61-.54,1.21-1.09,1.81-1.64Z"/>
      <path class="cls-2" d="M377.53,532.95c5.47-.37,10.85-1.06,16.17-1.91-5.33.85-10.7,1.55-16.17,1.91Z"/>
      <path class="cls-2" d="M443.4,402.46c.43-.7.87-1.39,1.28-2.1-.41.71-.85,1.4-1.28,2.1Z"/>
      <path class="cls-2" d="M447.71,394.45c.37-.78.78-1.55,1.13-2.35-.35.8-.76,1.56-1.13,2.35Z"/>
      <path class="cls-2" d="M438.3,410.01c.48-.64.97-1.26,1.43-1.92-.46.65-.95,1.28-1.43,1.92Z"/>
      <path class="cls-2" d="M432.47,417.02c.54-.58,1.08-1.16,1.6-1.76-.52.6-1.06,1.18-1.6,1.76Z"/>
      <path class="cls-2" d="M543.4,275.64v79.72c0,101.13-84.74,182.86-186.88,177.73-95.66-4.68-169.03-87.19-169.03-182.86v-31.11c0-12.04,4.79-22.86,12.71-30.77,7.8-7.81,18.62-12.71,30.66-12.71,23.97,0,43.37,19.51,43.37,43.49v33c0,47.05,38.13,91.09,84.96,94.22,40.36,2.68,75.59-20.96,90.2-55.53.22-.67.45-1.23.67-1.89,4.24-10.37,6.47-21.74,6.47-33.56v-36.24c0-23.97,19.51-43.49,43.48-43.49h43.38Z"/>
      <path class="cls-7" d="M449.41,390.81c-17.5,53.63-68.01,92.43-127.66,92.43-37.13,0-70.58-15.05-94.89-39.36-24.09-23.97-39.02-57.09-39.36-93.66v-31.11c0-12.04,4.79-22.86,12.71-30.77,7.8-7.81,18.62-12.71,30.66-12.71,23.97,0,43.37,19.51,43.37,43.49v33c0,47.05,38.13,91.09,84.96,94.22,40.36,2.68,75.59-20.96,90.2-55.53Z"/>
      <path class="cls-2" d="M543.36,355.33v325.58c0,23.97-19.4,43.37-43.38,43.37h-169.59c-72.81,0-136.36-54.3-142.49-126.89-2.35-27.87,3.67-54.3,15.83-77.05,8.59-16.28,20.41-30.55,34.45-42.15l7.14-5.8,7.92,2.68,22.63,5.35,85.86,27.76s8.59,6.02,9.48,6.47c1,.56-5.8,18.62-5.8,18.62h-39.02c-30.44,0-54.97,26.31-51.85,57.31.11,1.78.45,3.46.89,5.13-.11.11,0,.11,0,.22,5.13,23.41,28.99,41.59,53.19,41.59h127.89v-129.34c52.07-31.11,86.86-87.97,86.86-152.87Z"/>
      <path class="cls-1" d="M543.36,637.54v43.37c0,23.97-19.4,43.37-43.38,43.37h-82.4c-39.47,0-75.26-16.06-101.13-41.92-22.63-22.63-37.69-52.74-41.03-86.41,5.13,23.41,28.99,41.59,53.19,41.59h214.75Z"/>
    </g>
    <g>
      <path class="cls-3" d="M673.63,466.63c30.98,0,55.73-27.18,51.65-58.94-3.37-26.26-26.99-45.24-53.46-45.24h-128.41v129.34c3.35-2.01,6.77-3.9,10.26-5.69.05-.03.11-.05.16-.08,4.6-2.35,9.36-4.44,14.18-6.39,1.2-.49,2.41-.96,3.63-1.43,4.92-1.87,9.91-3.6,15.03-5.03.2-.05.4-.09.59-.15,4.95-1.37,10.01-2.46,15.13-3.4,1.3-.24,2.6-.47,3.91-.68,5.33-.86,10.7-1.55,16.17-1.91.33-.02.66-.01.99-.03,3.67-.23,7.37-.38,11.1-.38h39.07Z"/>
      <path class="cls-6" d="M565.94,584.73c-1.48,1.7-2.88,3.45-4.23,5.25,1.35-1.8,2.75-3.56,4.23-5.25Z"/>
      <path class="cls-6" d="M555.33,599.64c-1.09,1.92-2.08,3.9-3.04,5.91.95-2,1.94-3.99,3.04-5.91Z"/>
      <path class="cls-6" d="M560.27,591.9c-1.3,1.83-2.5,3.71-3.67,5.63,1.16-1.92,2.37-3.81,3.67-5.63Z"/>
      <path class="cls-6" d="M543.92,635c-.33,3.16-.51,6.36-.51,9.61,0-3.25.18-6.45.51-9.61Z"/>
      <path class="cls-6" d="M545.41,625.63c-.47,2.22-.79,4.48-1.09,6.76.31-2.27.62-4.54,1.09-6.76Z"/>
      <path class="cls-6" d="M551.16,607.89c-.87,1.98-1.63,4.02-2.37,6.08.74-2.05,1.49-4.1,2.37-6.08Z"/>
      <path class="cls-6" d="M547.84,616.58c-.66,2.06-1.2,4.17-1.72,6.29.52-2.12,1.05-4.23,1.72-6.29Z"/>
      <path class="cls-6" d="M611.46,556.52c-1.87.49-3.74,1-5.56,1.6,1.82-.61,3.69-1.11,5.56-1.6Z"/>
      <path class="cls-6" d="M620.5,554.64c-1.86.29-3.72.58-5.55.98,1.82-.4,3.69-.69,5.55-.98Z"/>
      <path class="cls-6" d="M629.98,553.68c-1.9.09-3.81.17-5.67.38,1.87-.21,3.77-.29,5.67-.38Z"/>
      <path class="cls-6" d="M579.16,572.34c-1.75,1.34-3.45,2.75-5.09,4.21,1.65-1.46,3.35-2.87,5.09-4.21Z"/>
      <path class="cls-6" d="M586.59,567.2c-1.83,1.14-3.61,2.32-5.35,3.58,1.74-1.26,3.53-2.45,5.35-3.58Z"/>
      <path class="cls-6" d="M594.49,562.83c-1.88.92-3.72,1.88-5.52,2.93,1.8-1.04,3.65-2.01,5.52-2.93Z"/>
      <path class="cls-6" d="M602.79,559.26c-1.89.7-3.75,1.44-5.58,2.26,1.82-.82,3.69-1.56,5.58-2.26Z"/>
      <path class="cls-6" d="M623.47,467.02c-.33.02-.66.01-.99.03.33-.02.66-.01.99-.03Z"/>
      <path class="cls-6" d="M553.83,486.03c-.05.03-.11.05-.16.08.05-.03.11-.05.16-.08Z"/>
      <path class="cls-6" d="M606.3,468.96c-1.31.21-2.61.44-3.91.68,1.3-.24,2.6-.47,3.91-.68Z"/>
      <path class="cls-6" d="M571.64,478.21c-1.22.46-2.42.94-3.63,1.43,1.2-.49,2.41-.96,3.63-1.43Z"/>
      <path class="cls-6" d="M567.53,582.98c1.52-1.65,3.09-3.25,4.72-4.78-1.64,1.53-3.2,3.13-4.72,4.78Z"/>
      <path class="cls-6" d="M587.26,473.04c-.2.05-.4.09-.59.15.2-.05.4-.09.59-.15Z"/>
      <path class="cls-2" d="M586.66,473.19c-5.12,1.43-10.11,3.16-15.03,5.03,4.92-1.87,9.91-3.6,15.03-5.03Z"/>
      <path class="cls-2" d="M588.97,565.76c-.8.47-1.59.95-2.38,1.44.79-.49,1.57-.98,2.38-1.44Z"/>
      <path class="cls-2" d="M614.95,555.62c-1.18.26-2.33.59-3.49.9,1.16-.31,2.31-.64,3.49-.9Z"/>
      <path class="cls-2" d="M581.24,570.78c-.7.51-1.39,1.03-2.08,1.55.69-.53,1.38-1.04,2.08-1.55Z"/>
      <path class="cls-2" d="M624.31,554.06c-1.29.14-2.54.38-3.81.58,1.27-.2,2.52-.44,3.81-.58Z"/>
      <path class="cls-2" d="M597.21,561.52c-.92.42-1.82.87-2.72,1.31.9-.44,1.8-.9,2.72-1.31Z"/>
      <path class="cls-2" d="M605.9,558.12c-1.05.35-2.07.75-3.11,1.14,1.03-.38,2.06-.79,3.11-1.14Z"/>
      <path class="cls-2" d="M568.01,479.64c-4.82,1.95-9.58,4.04-14.18,6.39,4.6-2.35,9.36-4.44,14.18-6.39Z"/>
      <path class="cls-2" d="M602.39,469.64c-5.11.94-10.18,2.03-15.13,3.4,4.95-1.37,10.01-2.46,15.13-3.4Z"/>
      <path class="cls-2" d="M629.98,553.68c1.31-.06,2.6-.19,3.92-.2-1.32.01-2.61.13-3.92.2Z"/>
      <path class="cls-2" d="M546.12,622.87c-.23.93-.51,1.83-.71,2.77.2-.94.48-1.84.71-2.77Z"/>
      <path class="cls-2" d="M548.79,613.98c-.31.87-.67,1.72-.95,2.61.28-.88.64-1.73.95-2.61Z"/>
      <path class="cls-2" d="M544.32,632.39c-.12.87-.31,1.72-.4,2.61.09-.88.28-1.73.4-2.61Z"/>
      <path class="cls-2" d="M572.26,578.19c.59-.56,1.2-1.1,1.81-1.64-.61.54-1.21,1.09-1.81,1.64Z"/>
      <path class="cls-2" d="M622.47,467.05c-5.47.37-10.85,1.06-16.17,1.91,5.33-.85,10.7-1.55,16.17-1.91Z"/>
      <path class="cls-2" d="M556.6,597.54c-.43.7-.87,1.39-1.28,2.1.41-.71.85-1.4,1.28-2.1Z"/>
      <path class="cls-2" d="M552.29,605.55c-.37.78-.78,1.55-1.13,2.35.35-.8.76-1.56,1.13-2.35Z"/>
      <path class="cls-2" d="M561.7,589.99c-.48.64-.97,1.26-1.43,1.92.46-.65.95-1.28,1.43-1.92Z"/>
      <path class="cls-2" d="M567.53,582.98c-.54.58-1.08,1.16-1.6,1.76.52-.6,1.06-1.18,1.6-1.76Z"/>
      <path class="cls-2" d="M456.6,724.36v-79.72c0-101.13,84.74-182.86,186.88-177.73,95.66,4.68,169.03,87.19,169.03,182.86v31.11c0,12.04-4.79,22.86-12.71,30.77-7.8,7.81-18.62,12.71-30.66,12.71-23.97,0-43.37-19.51-43.37-43.49v-33c0-47.05-38.13-91.09-84.96-94.22-40.36-2.68-75.59,20.96-90.2,55.53-.22.67-.45,1.23-.67,1.89-4.24,10.37-6.47,21.74-6.47,33.56v36.24c0,23.97-19.51,43.49-43.48,43.49h-43.38Z"/>
      <path class="cls-5" d="M550.59,609.19c17.5-53.63,68.01-92.43,127.66-92.43,37.13,0,70.58,15.05,94.89,39.36,24.09,23.97,39.02,57.09,39.36,93.66v31.11c0,12.04-4.79,22.86-12.71,30.77-7.8,7.81-18.62,12.71-30.66,12.71-23.97,0-43.37-19.51-43.37-43.49v-33c0-47.05-38.13-91.09-84.96-94.22-40.36-2.68-75.59,20.96-90.2,55.53Z"/>
      <path class="cls-2" d="M456.64,644.67v-325.58c0-23.97,19.4-43.37,43.38-43.37h169.59c72.81,0,136.36,54.3,142.49,126.89,2.35,27.87-3.67,54.3-15.83,77.05-8.59,16.28-20.41,30.55-34.45,42.15l-7.14,5.8-7.92-2.68-22.63-5.35-85.86-27.76s-8.59-6.02-9.48-6.47c-1-.56,5.8-18.62,5.8-18.62h39.02c30.44,0,54.97-26.31,51.85-57.31-.11-1.78-.45-3.46-.89-5.13.11-.11,0-.11,0-.22-5.13-23.41-28.99-41.59-53.19-41.59h-127.89v129.34c-52.07,31.11-86.86,87.97-86.86,152.87Z"/>
      <path class="cls-4" d="M456.64,362.46v-43.37c0-23.97,19.4-43.37,43.38-43.37h82.4c39.47,0,75.26,16.06,101.13,41.92,22.63,22.63,37.69,52.74,41.03,86.41-5.13-23.41-28.99-41.59-53.19-41.59h-214.75Z"/>
    </g>
  </g>
</svg>