<?xml version="1.0" encoding="UTF-8"?>
<svg xmlns="http://www.w3.org/2000/svg" xmlns:xlink="http://www.w3.org/1999/xlink" viewBox="0 0 1000 1000">
  <defs>
    <style>
      .cls-1 {
        fill: url(#linear-gradient-2);
      }

      .cls-1, .cls-2, .cls-3, .cls-4 {
        mix-blend-mode: multiply;
      }

      .cls-5 {
        fill: #fff;
      }

      .cls-6 {
        fill: none;
      }

      .cls-2 {
        fill: url(#linear-gradient-4);
      }

      .cls-7 {
        isolation: isolate;
      }

      .cls-3 {
        fill: url(#linear-gradient-3);
      }

      .cls-8 {
        fill: #69ffea;
      }

      .cls-9 {
        fill: #3ecedb;
      }

      .cls-4 {
        fill: url(#linear-gradient);
      }
    </style>
    <linearGradient id="linear-gradient" x1="173.76" y1="376.11" x2="462.72" y2="390.14" gradientUnits="userSpaceOnUse">
      <stop offset="0" stop-color="#fff" stop-opacity="0"/>
      <stop offset=".44" stop-color="#cdcdcd" stop-opacity=".49"/>
      <stop offset=".82" stop-color="#a7a7a7" stop-opacity=".86"/>
      <stop offset="1" stop-color="#999"/>
    </linearGradient>
    <linearGradient id="linear-gradient-2" x1="288.73" y1="657.93" x2="538.12" y2="657.93" gradientUnits="userSpaceOnUse">
      <stop offset="0" stop-color="#999"/>
      <stop offset=".04" stop-color="#9f9f9f" stop-opacity=".94"/>
      <stop offset=".28" stop-color="#c1c1c1" stop-opacity=".61"/>
      <stop offset=".5" stop-color="#dbdbdb" stop-opacity=".34"/>
      <stop offset=".7" stop-color="#efefef" stop-opacity=".16"/>
      <stop offset=".87" stop-color="#fafafa" stop-opacity=".04"/>
      <stop offset="1" stop-color="#fff" stop-opacity="0"/>
    </linearGradient>
    <linearGradient id="linear-gradient-3" x1="-5986.51" y1="-206.54" x2="-5697.54" y2="-192.52" gradientTransform="translate(-5160.27 417.34) rotate(-180)" gradientUnits="userSpaceOnUse">
      <stop offset="0" stop-color="#fff" stop-opacity="0"/>
      <stop offset=".44" stop-color="#cdcdcd" stop-opacity=".49"/>
      <stop offset=".82" stop-color="#a7a7a7" stop-opacity=".86"/>
      <stop offset="1" stop-color="#999"/>
    </linearGradient>
    <linearGradient id="linear-gradient-4" x1="-5871.53" y1="75.27" x2="-5622.15" y2="75.27" gradientTransform="translate(-5160.27 417.34) rotate(-180)" xlink:href="#linear-gradient-2"/>
  </defs>
  <g class="cls-7">
    <g id="Layer_1" data-name="Layer 1">
      <g>
        <circle class="cls-5" cx="500" cy="500" r="465.13"/>
        <g>
          <g>
            <path class="cls-6" d="M328.89,532.88c-30.53,0-54.92,26.78-50.9,58.09,3.32,25.88,26.6,44.58,52.69,44.58h126.55v-127.46c-3.3,1.98-6.67,3.85-10.11,5.61-.05.03-.11.05-.16.07-4.54,2.32-9.22,4.37-13.98,6.3-1.19.48-2.37.95-3.57,1.4-4.85,1.84-9.77,3.54-14.81,4.95-.19.05-.39.09-.59.14-4.88,1.35-9.87,2.42-14.91,3.35-1.28.24-2.56.46-3.86.67-5.25.84-10.55,1.52-15.94,1.89-.32.02-.65.01-.98.03-3.62.23-7.26.38-10.93.38h-38.5Z"/>
            <path class="cls-8" d="M435.02,416.5c1.46-1.67,2.84-3.4,4.17-5.18-1.33,1.77-2.71,3.51-4.17,5.18Z"/>
            <path class="cls-8" d="M445.48,401.81c1.08-1.89,2.05-3.84,2.99-5.82-.94,1.97-1.91,3.93-2.99,5.82Z"/>
            <path class="cls-8" d="M440.61,409.43c1.28-1.8,2.47-3.66,3.61-5.55-1.15,1.89-2.33,3.75-3.61,5.55Z"/>
            <path class="cls-8" d="M456.72,366.96c.33-3.11.51-6.27.51-9.47,0,3.2-.18,6.36-.51,9.47Z"/>
            <path class="cls-8" d="M455.25,376.19c.46-2.18.78-4.42,1.08-6.66-.3,2.24-.61,4.47-1.08,6.66Z"/>
            <path class="cls-8" d="M449.58,393.67c.86-1.95,1.61-3.97,2.33-5.99-.73,2.02-1.47,4.04-2.33,5.99Z"/>
            <path class="cls-8" d="M452.86,385.11c.65-2.03,1.18-4.11,1.69-6.19-.51,2.09-1.03,4.17-1.69,6.19Z"/>
            <path class="cls-8" d="M390.16,444.3c1.85-.48,3.68-.98,5.48-1.58-1.8.6-3.64,1.09-5.48,1.58Z"/>
            <path class="cls-8" d="M381.25,446.15c1.84-.29,3.67-.57,5.47-.96-1.8.4-3.63.68-5.47.96Z"/>
            <path class="cls-8" d="M371.9,447.1c1.87-.09,3.75-.17,5.59-.38-1.84.21-3.72.28-5.59.38Z"/>
            <path class="cls-8" d="M421.99,428.72c1.72-1.33,3.4-2.71,5.02-4.15-1.62,1.44-3.3,2.83-5.02,4.15Z"/>
            <path class="cls-8" d="M414.67,433.78c1.8-1.12,3.56-2.29,5.28-3.53-1.71,1.24-3.48,2.41-5.28,3.53Z"/>
            <path class="cls-8" d="M406.88,438.09c1.85-.91,3.67-1.86,5.44-2.89-1.77,1.03-3.6,1.98-5.44,2.89Z"/>
            <path class="cls-8" d="M398.71,441.6c1.86-.69,3.7-1.41,5.5-2.23-1.8.81-3.64,1.53-5.5,2.23Z"/>
            <path class="cls-8" d="M378.33,532.5c.32-.02.65-.01.98-.03-.32.02-.65.01-.98.03Z"/>
            <path class="cls-8" d="M446.95,513.77c.05-.03.11-.05.16-.07-.05.03-.11.05-.16.07Z"/>
            <path class="cls-8" d="M395.24,530.58c1.29-.21,2.57-.43,3.86-.67-1.28.24-2.57.46-3.86.67Z"/>
            <path class="cls-8" d="M429.4,521.47c1.2-.46,2.39-.92,3.57-1.4-1.19.48-2.38.95-3.57,1.4Z"/>
            <path class="cls-8" d="M433.45,418.23c-1.5,1.63-3.04,3.2-4.65,4.72,1.61-1.51,3.16-3.09,4.65-4.72Z"/>
            <path class="cls-8" d="M414.01,526.57c.19-.05.39-.09.59-.14-.19.05-.39.09-.59.14Z"/>
            <path class="cls-5" d="M414.59,526.42c5.04-1.41,9.96-3.11,14.81-4.95-4.85,1.84-9.77,3.54-14.81,4.95Z"/>
            <path class="cls-5" d="M412.33,435.2c.79-.46,1.57-.94,2.34-1.42-.78.48-1.55.96-2.34,1.42Z"/>
            <path class="cls-5" d="M386.72,445.19c1.16-.26,2.3-.58,3.44-.89-1.15.3-2.28.63-3.44.89Z"/>
            <path class="cls-9" d="M542.73,357.51v320.78c0,23.68-19.12,42.79-42.67,42.79h-167.15c-71.8,0-134.37-53.59-140.49-125.13-2.21-26.93,3.39-52.42,14.83-74.54,4.94-9.5,10.4-17.17,15.22-23.15,7.15-8.84,14.31-15.48,20.42-20.42,35.51,31.74,69.07,46.57,83.52,50.08,16.78,4.16,34.21,4.81,34.21,4.81,2.08.13,4.29.13,6.37.13h-37.98c-30.05,0-54.24,25.88-51.12,56.45.13,1.69.39,3.38.91,5.07v.39c4.81,21.86,26.28,39.15,48.91,40.59,1.18.26,2.21.26,3.39.26h126.05v-127.48c51.38-30.7,85.59-86.76,85.59-150.63Z"/>
            <path class="cls-5" d="M419.95,430.25c.69-.5,1.37-1.01,2.05-1.53-.68.52-1.36,1.03-2.05,1.53Z"/>
            <path class="cls-5" d="M377.5,446.72c1.27-.14,2.5-.38,3.75-.57-1.25.19-2.49.43-3.75.57Z"/>
            <path class="cls-5" d="M404.2,439.38c.91-.41,1.79-.85,2.68-1.29-.89.44-1.77.89-2.68,1.29Z"/>
            <path class="cls-5" d="M395.64,442.72c1.04-.34,2.04-.74,3.06-1.12-1.02.38-2.03.78-3.06,1.12Z"/>
            <path class="cls-5" d="M432.98,520.07c4.75-1.92,9.44-3.98,13.98-6.3-4.54,2.32-9.22,4.37-13.98,6.3Z"/>
            <path class="cls-5" d="M399.1,529.92c5.04-.92,10.03-2,14.91-3.35-4.88,1.35-9.87,2.42-14.91,3.35Z"/>
            <path class="cls-5" d="M371.9,447.1c-1.29.06-2.56.19-3.87.2,1.3-.01,2.58-.13,3.87-.2Z"/>
            <path class="cls-5" d="M454.55,378.92c.22-.91.5-1.8.7-2.73-.2.92-.48,1.81-.7,2.73Z"/>
            <path class="cls-5" d="M451.92,387.68c.31-.86.66-1.7.94-2.57-.28.87-.63,1.71-.94,2.57Z"/>
            <path class="cls-5" d="M456.33,369.53c.12-.86.3-1.7.39-2.57-.09.87-.28,1.71-.39,2.57Z"/>
            <path class="cls-5" d="M428.79,422.94c-.58.55-1.18,1.09-1.78,1.62.6-.53,1.19-1.07,1.78-1.62Z"/>
            <path class="cls-5" d="M379.31,532.47c5.39-.36,10.69-1.04,15.94-1.89-5.25.84-10.55,1.52-15.94,1.89Z"/>
            <path class="cls-5" d="M444.22,403.88c.42-.69.86-1.37,1.26-2.07-.4.7-.84,1.38-1.26,2.07Z"/>
            <path class="cls-5" d="M448.47,395.99c.37-.77.77-1.53,1.11-2.31-.35.79-.75,1.54-1.11,2.31Z"/>
            <path class="cls-5" d="M439.19,411.32c.47-.63.96-1.25,1.41-1.89-.46.64-.94,1.26-1.41,1.89Z"/>
            <path class="cls-5" d="M433.45,418.23c.53-.57,1.06-1.14,1.57-1.73-.51.59-1.05,1.16-1.57,1.73Z"/>
            <path class="cls-9" d="M542.77,278.9v78.56c0,99.66-83.51,180.2-184.16,175.15-94.27-4.61-166.57-85.93-166.57-180.2v-30.66c0-11.87,4.72-22.53,12.53-30.33,7.69-7.69,18.35-12.53,30.22-12.53,23.62,0,42.74,19.23,42.74,42.85v32.52c0,46.37,37.58,89.77,83.73,92.85,39.78,2.64,74.5-20.66,88.89-54.72.22-.66.44-1.21.66-1.87,4.17-10.22,6.37-21.43,6.37-33.07v-35.71c0-23.62,19.23-42.85,42.85-42.85h42.74Z"/>
          </g>
          <path class="cls-4" d="M450.14,392.4c-17.25,52.85-67.02,91.09-125.81,91.09-36.59,0-69.55-14.83-93.51-38.79-23.74-23.62-38.46-56.26-38.79-92.3v-30.66c0-11.87,4.72-22.53,12.53-30.33,7.69-7.69,18.35-12.53,30.22-12.53,23.62,0,42.74,19.23,42.74,42.85v32.52c0,46.37,37.58,89.77,83.73,92.85,39.78,2.64,74.5-20.66,88.89-54.72Z"/>
          <path class="cls-1" d="M542.73,635.62v42.67c0,23.68-19.12,42.79-42.67,42.79h-81.17c-38.9,0-74.27-15.87-99.77-41.36-22.24-22.24-36.95-51.77-40.33-84.94,4.81,21.86,26.28,39.15,48.91,40.59,1.82.13,3.65.26,5.6.26h209.43Z"/>
        </g>
        <g>
          <g>
            <path class="cls-6" d="M671.11,467.12c30.53,0,54.92-26.78,50.9-58.09-3.32-25.88-26.6-44.58-52.69-44.58h-126.55v127.46c3.3-1.98,6.67-3.85,10.11-5.61.05-.03.11-.05.16-.07,4.54-2.32,9.22-4.37,13.98-6.3,1.19-.48,2.37-.95,3.57-1.4,4.85-1.84,9.77-3.54,14.81-4.95.19-.05.39-.09.59-.14,4.88-1.35,9.87-2.42,14.91-3.35,1.28-.24,2.56-.46,3.86-.67,5.25-.84,10.55-1.52,15.94-1.89.32-.02.65-.01.98-.03,3.62-.23,7.26-.38,10.93-.38h38.5Z"/>
            <path class="cls-8" d="M564.98,583.5c-1.46,1.67-2.84,3.4-4.17,5.18,1.33-1.77,2.71-3.51,4.17-5.18Z"/>
            <path class="cls-8" d="M554.52,598.19c-1.08,1.89-2.05,3.84-2.99,5.82.94-1.97,1.91-3.93,2.99-5.82Z"/>
            <path class="cls-8" d="M559.39,590.57c-1.28,1.8-2.47,3.66-3.61,5.55,1.15-1.89,2.33-3.75,3.61-5.55Z"/>
            <path class="cls-8" d="M543.28,633.04c-.33,3.11-.51,6.27-.51,9.47,0-3.2.18-6.36.51-9.47Z"/>
            <path class="cls-8" d="M544.75,623.81c-.46,2.18-.78,4.42-1.08,6.66.3-2.24.61-4.47,1.08-6.66Z"/>
            <path class="cls-8" d="M550.42,606.33c-.86,1.95-1.61,3.97-2.33,5.99.73-2.02,1.47-4.04,2.33-5.99Z"/>
            <path class="cls-8" d="M547.14,614.89c-.65,2.03-1.18,4.11-1.69,6.19.51-2.09,1.03-4.17,1.69-6.19Z"/>
            <path class="cls-8" d="M609.84,555.7c-1.85.48-3.68.98-5.48,1.58,1.8-.6,3.64-1.09,5.48-1.58Z"/>
            <path class="cls-8" d="M618.75,553.85c-1.84.29-3.67.57-5.47.96,1.8-.4,3.63-.68,5.47-.96Z"/>
            <path class="cls-8" d="M628.1,552.9c-1.87.09-3.75.17-5.59.38,1.84-.21,3.72-.28,5.59-.38Z"/>
            <path class="cls-8" d="M578.01,571.28c-1.72,1.33-3.4,2.71-5.02,4.15,1.62-1.44,3.3-2.83,5.02-4.15Z"/>
            <path class="cls-8" d="M585.33,566.22c-1.8,1.12-3.56,2.29-5.28,3.53,1.71-1.24,3.48-2.41,5.28-3.53Z"/>
            <path class="cls-8" d="M593.12,561.91c-1.85.91-3.67,1.86-5.44,2.89,1.77-1.03,3.6-1.98,5.44-2.89Z"/>
            <path class="cls-8" d="M601.29,558.4c-1.86.69-3.7,1.41-5.5,2.23,1.8-.81,3.64-1.53,5.5-2.23Z"/>
            <path class="cls-8" d="M621.67,467.5c-.32.02-.65.01-.98.03.32-.02.65-.01.98-.03Z"/>
            <path class="cls-8" d="M553.05,486.23c-.05.03-.11.05-.16.07.05-.03.11-.05.16-.07Z"/>
            <path class="cls-8" d="M604.76,469.42c-1.29.21-2.57.43-3.86.67,1.28-.24,2.57-.46,3.86-.67Z"/>
            <path class="cls-8" d="M570.6,478.53c-1.2.46-2.39.92-3.57,1.4,1.19-.48,2.38-.95,3.57-1.4Z"/>
            <path class="cls-8" d="M566.55,581.77c1.5-1.63,3.04-3.2,4.65-4.72-1.61,1.51-3.16,3.09-4.65,4.72Z"/>
            <path class="cls-8" d="M585.99,473.43c-.19.05-.39.09-.59.14.19-.05.39-.09.59-.14Z"/>
            <path class="cls-5" d="M585.41,473.58c-5.04,1.41-9.96,3.11-14.81,4.95,4.85-1.84,9.77-3.54,14.81-4.95Z"/>
            <path class="cls-5" d="M587.67,564.8c-.79.46-1.57.94-2.34,1.42.78-.48,1.55-.96,2.34-1.42Z"/>
            <path class="cls-5" d="M613.28,554.81c-1.16.26-2.3.58-3.44.89,1.15-.3,2.28-.63,3.44-.89Z"/>
            <path class="cls-9" d="M457.27,642.49v-320.78c0-23.68,19.12-42.79,42.67-42.79h167.15c71.8,0,134.37,53.59,140.49,125.13,2.21,26.93-3.39,52.42-14.83,74.54-4.94,9.5-10.4,17.17-15.22,23.15-7.15,8.84-14.31,15.48-20.42,20.42-35.51-31.74-69.07-46.57-83.52-50.08-16.78-4.16-34.21-4.81-34.21-4.81-2.08-.13-4.29-.13-6.37-.13h37.98c30.05,0,54.24-25.88,51.12-56.45-.13-1.69-.39-3.38-.91-5.07v-.39c-4.81-21.86-26.28-39.15-48.91-40.59-1.18-.26-2.21-.26-3.39-.26h-126.05v127.48c-51.38,30.7-85.59,86.76-85.59,150.63Z"/>
            <path class="cls-5" d="M580.05,569.75c-.69.5-1.37,1.01-2.05,1.53.68-.52,1.36-1.03,2.05-1.53Z"/>
            <path class="cls-5" d="M622.5,553.28c-1.27.14-2.5.38-3.75.57,1.25-.19,2.49-.43,3.75-.57Z"/>
            <path class="cls-5" d="M595.8,560.62c-.91.41-1.79.85-2.68,1.29.89-.44,1.77-.89,2.68-1.29Z"/>
            <path class="cls-5" d="M604.36,557.28c-1.04.34-2.04.74-3.06,1.12,1.02-.38,2.03-.78,3.06-1.12Z"/>
            <path class="cls-5" d="M567.02,479.93c-4.75,1.92-9.44,3.98-13.98,6.3,4.54-2.32,9.22-4.37,13.98-6.3Z"/>
            <path class="cls-5" d="M600.9,470.08c-5.04.92-10.03,2-14.91,3.35,4.88-1.35,9.87-2.42,14.91-3.35Z"/>
            <path class="cls-5" d="M628.1,552.9c1.29-.06,2.56-.19,3.87-.2-1.3.01-2.58.13-3.87.2Z"/>
            <path class="cls-5" d="M545.45,621.08c-.22.91-.5,1.8-.7,2.73.2-.92.48-1.81.7-2.73Z"/>
            <path class="cls-5" d="M548.08,612.32c-.31.86-.66,1.7-.94,2.57.28-.87.63-1.71.94-2.57Z"/>
            <path class="cls-5" d="M543.67,630.47c-.12.86-.3,1.7-.39,2.57.09-.87.28-1.71.39-2.57Z"/>
            <path class="cls-5" d="M571.21,577.06c.58-.55,1.18-1.09,1.78-1.62-.6.53-1.19,1.07-1.78,1.62Z"/>
            <path class="cls-5" d="M620.69,467.53c-5.39.36-10.69,1.04-15.94,1.89,5.25-.84,10.55-1.52,15.94-1.89Z"/>
            <path class="cls-5" d="M555.78,596.12c-.42.69-.86,1.37-1.26,2.07.4-.7.84-1.38,1.26-2.07Z"/>
            <path class="cls-5" d="M551.53,604.01c-.37.77-.77,1.53-1.11,2.31.35-.79.75-1.54,1.11-2.31Z"/>
            <path class="cls-5" d="M560.81,588.68c-.47.63-.96,1.25-1.41,1.89.46-.64.94-1.26,1.41-1.89Z"/>
            <path class="cls-5" d="M566.55,581.77c-.53.57-1.06,1.14-1.57,1.73.51-.59,1.05-1.16,1.57-1.73Z"/>
            <path class="cls-9" d="M457.23,721.1v-78.56c0-99.66,83.51-180.2,184.16-175.15,94.27,4.61,166.57,85.93,166.57,180.2v30.66c0,11.87-4.72,22.53-12.53,30.33-7.69,7.69-18.35,12.53-30.22,12.53-23.62,0-42.74-19.23-42.74-42.85v-32.52c0-46.37-37.58-89.77-83.73-92.85-39.78-2.64-74.5,20.66-88.89,54.72-.22.66-.44,1.21-.66,1.87-4.17,10.22-6.37,21.43-6.37,33.07v35.71c0,23.62-19.23,42.85-42.85,42.85h-42.74Z"/>
          </g>
          <path class="cls-3" d="M549.86,607.6c17.25-52.85,67.02-91.09,125.81-91.09,36.59,0,69.55,14.83,93.51,38.79,23.74,23.62,38.46,56.26,38.79,92.3v30.66c0,11.87-4.72,22.53-12.53,30.33-7.69,7.69-18.35,12.53-30.22,12.53-23.62,0-42.74-19.23-42.74-42.85v-32.52c0-46.37-37.58-89.77-83.73-92.85-39.78-2.64-74.5,20.66-88.89,54.72Z"/>
          <path class="cls-2" d="M457.27,364.38v-42.67c0-23.68,19.12-42.79,42.67-42.79h81.17c38.9,0,74.27,15.87,99.77,41.36,22.24,22.24,36.95,51.77,40.33,84.94-4.81-21.86-26.28-39.15-48.91-40.59-1.82-.13-3.65-.26-5.6-.26h-209.43Z"/>
        </g>
      </g>
    </g>
  </g>
</svg>