<?xml version="1.0" encoding="UTF-8"?>
<svg xmlns="http://www.w3.org/2000/svg" version="1.1" xmlns:xlink="http://www.w3.org/1999/xlink" viewBox="0 0 1000 280.4">
  <!-- Generator: Adobe Illustrator 29.5.1, SVG Export Plug-In . SVG Version: 2.1.0 Build 141)  -->
  <defs>
    <style>
      .st0 {
        fill: url(#linear-gradient1);
      }

      .st0, .st1, .st2, .st3 {
        mix-blend-mode: multiply;
      }

      .st4 {
        fill: #fff;
      }

      .st5 {
        fill: none;
      }

      .st6 {
        isolation: isolate;
      }

      .st1 {
        fill: url(#linear-gradient2);
      }

      .st7 {
        fill: #69ffea;
      }

      .st8 {
        fill: #3ecedb;
      }

      .st2 {
        fill: url(#linear-gradient3);
      }

      .st3 {
        fill: url(#linear-gradient);
      }
    </style>
    <linearGradient id="linear-gradient" x1="65.5" y1="108.4" x2="139.7" y2="112" gradientUnits="userSpaceOnUse">
      <stop offset="0" stop-color="#fff" stop-opacity="0"/>
      <stop offset=".4" stop-color="#cdcdcd" stop-opacity=".5"/>
      <stop offset=".8" stop-color="#a7a7a7" stop-opacity=".9"/>
      <stop offset="1" stop-color="#999"/>
    </linearGradient>
    <linearGradient id="linear-gradient1" x1="95" y1="180.7" x2="159.1" y2="180.7" gradientUnits="userSpaceOnUse">
      <stop offset="0" stop-color="#999"/>
      <stop offset="0" stop-color="#9f9f9f" stop-opacity=".9"/>
      <stop offset=".3" stop-color="#c1c1c1" stop-opacity=".6"/>
      <stop offset=".5" stop-color="#dbdbdb" stop-opacity=".3"/>
      <stop offset=".7" stop-color="#efefef" stop-opacity=".2"/>
      <stop offset=".9" stop-color="#fafafa" stop-opacity="0"/>
      <stop offset="1" stop-color="#fff" stop-opacity="0"/>
    </linearGradient>
    <linearGradient id="linear-gradient2" x1="-5381.1" y1="939.8" x2="-5306.9" y2="943.4" gradientTransform="translate(-5148 1111.8) rotate(-180)" gradientUnits="userSpaceOnUse">
      <stop offset="0" stop-color="#fff" stop-opacity="0"/>
      <stop offset=".4" stop-color="#cdcdcd" stop-opacity=".5"/>
      <stop offset=".8" stop-color="#a7a7a7" stop-opacity=".9"/>
      <stop offset="1" stop-color="#999"/>
    </linearGradient>
    <linearGradient id="linear-gradient3" x1="-5351.6" y1="1012.2" x2="-5287.5" y2="1012.2" gradientTransform="translate(-5148 1111.8) rotate(-180)" xlink:href="#linear-gradient1"/>
  </defs>
  <g class="st6">
    <g id="Layer_1">
      <g>
        <circle class="st4" cx="149.3" cy="140.2" r="119.4"/>
        <g>
          <g>
            <path class="st5" d="M105.4,148.6c-7.8,0-14.1,6.9-13.1,14.9.9,6.6,6.8,11.4,13.5,11.4h32.5v-32.7c-.8.5-1.7,1-2.6,1.4,0,0,0,0,0,0-1.2.6-2.4,1.1-3.6,1.6-.3.1-.6.2-.9.4-1.2.5-2.5.9-3.8,1.3,0,0-.1,0-.2,0-1.3.3-2.5.6-3.8.9-.3,0-.7.1-1,.2-1.3.2-2.7.4-4.1.5,0,0-.2,0-.3,0-.9,0-1.9,0-2.8,0h-9.9Z"/>
            <path class="st7" d="M132.6,118.7c.4-.4.7-.9,1.1-1.3-.3.5-.7.9-1.1,1.3Z"/>
            <path class="st7" d="M135.3,115c.3-.5.5-1,.8-1.5-.2.5-.5,1-.8,1.5Z"/>
            <path class="st7" d="M134,116.9c.3-.5.6-.9.9-1.4-.3.5-.6,1-.9,1.4Z"/>
            <path class="st7" d="M138.2,106c0-.8.1-1.6.1-2.4,0,.8,0,1.6-.1,2.4Z"/>
            <path class="st7" d="M137.8,108.4c.1-.6.2-1.1.3-1.7,0,.6-.2,1.1-.3,1.7Z"/>
            <path class="st7" d="M136.4,112.9c.2-.5.4-1,.6-1.5-.2.5-.4,1-.6,1.5Z"/>
            <path class="st7" d="M137.2,110.7c.2-.5.3-1.1.4-1.6-.1.5-.3,1.1-.4,1.6Z"/>
            <path class="st7" d="M121.1,125.9c.5-.1.9-.3,1.4-.4-.5.2-.9.3-1.4.4Z"/>
            <path class="st7" d="M118.8,126.3c.5,0,.9-.1,1.4-.2-.5.1-.9.2-1.4.2Z"/>
            <path class="st7" d="M116.4,126.6c.5,0,1,0,1.4,0-.5,0-1,0-1.4,0Z"/>
            <path class="st7" d="M129.3,121.9c.4-.3.9-.7,1.3-1.1-.4.4-.8.7-1.3,1.1Z"/>
            <path class="st7" d="M127.4,123.2c.5-.3.9-.6,1.4-.9-.4.3-.9.6-1.4.9Z"/>
            <path class="st7" d="M125.4,124.3c.5-.2.9-.5,1.4-.7-.5.3-.9.5-1.4.7Z"/>
            <path class="st7" d="M123.3,125.2c.5-.2.9-.4,1.4-.6-.5.2-.9.4-1.4.6Z"/>
            <path class="st7" d="M118.1,148.5c0,0,.2,0,.3,0,0,0-.2,0-.3,0Z"/>
            <path class="st7" d="M135.7,143.7s0,0,0,0c0,0,0,0,0,0Z"/>
            <path class="st7" d="M122.4,148c.3,0,.7-.1,1-.2-.3,0-.7.1-1,.2Z"/>
            <path class="st7" d="M131.2,145.7c.3-.1.6-.2.9-.4-.3.1-.6.2-.9.4Z"/>
            <path class="st7" d="M132.2,119.2c-.4.4-.8.8-1.2,1.2.4-.4.8-.8,1.2-1.2Z"/>
            <path class="st7" d="M127.2,147s.1,0,.2,0c0,0-.1,0-.2,0Z"/>
            <path class="st4" d="M127.4,147c1.3-.4,2.6-.8,3.8-1.3-1.2.5-2.5.9-3.8,1.3Z"/>
            <path class="st4" d="M126.8,123.5c.2-.1.4-.2.6-.4-.2.1-.4.2-.6.4Z"/>
            <path class="st4" d="M120.2,126.1c.3,0,.6-.2.9-.2-.3,0-.6.2-.9.2Z"/>
            <path class="st8" d="M160.3,103.6v82.4c0,6.1-4.9,11-11,11h-42.9c-18.4,0-34.5-13.8-36.1-32.1-.6-6.9.9-13.5,3.8-19.1,1.3-2.4,2.7-4.4,3.9-5.9,1.8-2.3,3.7-4,5.2-5.2,9.1,8.2,17.7,12,21.4,12.9,4.3,1.1,8.8,1.2,8.8,1.2.5,0,1.1,0,1.6,0h-9.8c-7.7,0-13.9,6.6-13.1,14.5,0,.4.1.9.2,1.3h0c1.2,5.7,6.7,10.2,12.6,10.5.3,0,.6,0,.9,0h32.4v-32.7c13.2-7.9,22-22.3,22-38.7Z"/>
            <path class="st4" d="M128.7,122.3c.2-.1.4-.3.5-.4-.2.1-.3.3-.5.4Z"/>
            <path class="st4" d="M117.8,126.5c.3,0,.6,0,1-.1-.3,0-.6.1-1,.1Z"/>
            <path class="st4" d="M124.7,124.6c.2-.1.5-.2.7-.3-.2.1-.5.2-.7.3Z"/>
            <path class="st4" d="M122.5,125.5c.3,0,.5-.2.8-.3-.3,0-.5.2-.8.3Z"/>
            <path class="st4" d="M132.1,145.3c1.2-.5,2.4-1,3.6-1.6-1.2.6-2.4,1.1-3.6,1.6Z"/>
            <path class="st4" d="M123.4,147.9c1.3-.2,2.6-.5,3.8-.9-1.3.3-2.5.6-3.8.9Z"/>
            <path class="st4" d="M116.4,126.6c-.3,0-.7,0-1,0,.3,0,.7,0,1,0Z"/>
            <path class="st4" d="M137.6,109.1c0-.2.1-.5.2-.7,0,.2-.1.5-.2.7Z"/>
            <path class="st4" d="M137,111.3c0-.2.2-.4.2-.7,0,.2-.2.4-.2.7Z"/>
            <path class="st4" d="M138.1,106.7c0-.2,0-.4.1-.7,0,.2,0,.4-.1.7Z"/>
            <path class="st4" d="M131,120.4c-.2.1-.3.3-.5.4.2-.1.3-.3.5-.4Z"/>
            <path class="st4" d="M118.3,148.5c1.4,0,2.7-.3,4.1-.5-1.3.2-2.7.4-4.1.5Z"/>
            <path class="st4" d="M135,115.5c.1-.2.2-.4.3-.5-.1.2-.2.4-.3.5Z"/>
            <path class="st4" d="M136.1,113.5c0-.2.2-.4.3-.6,0,.2-.2.4-.3.6Z"/>
            <path class="st4" d="M133.7,117.4c.1-.2.2-.3.4-.5-.1.2-.2.3-.4.5Z"/>
            <path class="st4" d="M132.2,119.2c.1-.1.3-.3.4-.4-.1.2-.3.3-.4.4Z"/>
            <path class="st8" d="M160.3,83.4v20.2c0,25.6-21.4,46.3-47.3,45-24.2-1.2-42.8-22.1-42.8-46.3v-7.9c0-3,1.2-5.8,3.2-7.8,2-2,4.7-3.2,7.8-3.2,6.1,0,11,4.9,11,11v8.4c0,11.9,9.7,23.1,21.5,23.8,10.2.7,19.1-5.3,22.8-14.1,0-.2.1-.3.2-.5,1.1-2.6,1.6-5.5,1.6-8.5v-9.2c0-6.1,4.9-11,11-11h11Z"/>
          </g>
          <path class="st3" d="M136.5,112.5c-4.4,13.6-17.2,23.4-32.3,23.4s-17.9-3.8-24-10c-6.1-6.1-9.9-14.4-10-23.7v-7.9c0-3,1.2-5.8,3.2-7.8,2-2,4.7-3.2,7.8-3.2,6.1,0,11,4.9,11,11v8.4c0,11.9,9.7,23.1,21.5,23.8,10.2.7,19.1-5.3,22.8-14.1Z"/>
          <path class="st0" d="M160.3,175v11c0,6.1-4.9,11-11,11h-20.8c-10,0-19.1-4.1-25.6-10.6-5.7-5.7-9.5-13.3-10.4-21.8,1.2,5.6,6.7,10.1,12.6,10.4.5,0,.9,0,1.4,0h53.8Z"/>
        </g>
        <g>
          <g>
            <path class="st5" d="M193.2,131.7c7.8,0,14.1-6.9,13.1-14.9-.9-6.6-6.8-11.4-13.5-11.4h-32.5v32.7c.8-.5,1.7-1,2.6-1.4,0,0,0,0,0,0,1.2-.6,2.4-1.1,3.6-1.6.3-.1.6-.2.9-.4,1.2-.5,2.5-.9,3.8-1.3,0,0,.1,0,.2,0,1.3-.3,2.5-.6,3.8-.9.3,0,.7-.1,1-.2,1.3-.2,2.7-.4,4.1-.5,0,0,.2,0,.3,0,.9,0,1.9,0,2.8,0h9.9Z"/>
            <path class="st7" d="M166,161.6c-.4.4-.7.9-1.1,1.3.3-.5.7-.9,1.1-1.3Z"/>
            <path class="st7" d="M163.3,165.4c-.3.5-.5,1-.8,1.5.2-.5.5-1,.8-1.5Z"/>
            <path class="st7" d="M164.6,163.4c-.3.5-.6.9-.9,1.4.3-.5.6-1,.9-1.4Z"/>
            <path class="st7" d="M160.4,174.3c0,.8-.1,1.6-.1,2.4,0-.8,0-1.6.1-2.4Z"/>
            <path class="st7" d="M160.8,172c-.1.6-.2,1.1-.3,1.7,0-.6.2-1.1.3-1.7Z"/>
            <path class="st7" d="M162.2,167.5c-.2.5-.4,1-.6,1.5.2-.5.4-1,.6-1.5Z"/>
            <path class="st7" d="M161.4,169.7c-.2.5-.3,1.1-.4,1.6.1-.5.3-1.1.4-1.6Z"/>
            <path class="st7" d="M177.5,154.5c-.5.1-.9.3-1.4.4.5-.2.9-.3,1.4-.4Z"/>
            <path class="st7" d="M179.8,154c-.5,0-.9.1-1.4.2.5-.1.9-.2,1.4-.2Z"/>
            <path class="st7" d="M182.2,153.8c-.5,0-1,0-1.4,0,.5,0,1,0,1.4,0Z"/>
            <path class="st7" d="M169.3,158.5c-.4.3-.9.7-1.3,1.1.4-.4.8-.7,1.3-1.1Z"/>
            <path class="st7" d="M171.2,157.2c-.5.3-.9.6-1.4.9.4-.3.9-.6,1.4-.9Z"/>
            <path class="st7" d="M173.2,156.1c-.5.2-.9.5-1.4.7.5-.3.9-.5,1.4-.7Z"/>
            <path class="st7" d="M175.3,155.2c-.5.2-.9.4-1.4.6.5-.2.9-.4,1.4-.6Z"/>
            <path class="st7" d="M180.5,131.8c0,0-.2,0-.3,0,0,0,.2,0,.3,0Z"/>
            <path class="st7" d="M162.9,136.6s0,0,0,0c0,0,0,0,0,0Z"/>
            <path class="st7" d="M176.2,132.3c-.3,0-.7.1-1,.2.3,0,.7-.1,1-.2Z"/>
            <path class="st7" d="M167.4,134.7c-.3.1-.6.2-.9.4.3-.1.6-.2.9-.4Z"/>
            <path class="st7" d="M166.4,161.2c.4-.4.8-.8,1.2-1.2-.4.4-.8.8-1.2,1.2Z"/>
            <path class="st7" d="M171.4,133.4s-.1,0-.2,0c0,0,.1,0,.2,0Z"/>
            <path class="st4" d="M171.2,133.4c-1.3.4-2.6.8-3.8,1.3,1.2-.5,2.5-.9,3.8-1.3Z"/>
            <path class="st4" d="M171.8,156.8c-.2.1-.4.2-.6.4.2-.1.4-.2.6-.4Z"/>
            <path class="st4" d="M178.4,154.3c-.3,0-.6.2-.9.2.3,0,.6-.2.9-.2Z"/>
            <path class="st8" d="M138.3,176.8v-82.4c0-6.1,4.9-11,11-11h42.9c18.4,0,34.5,13.8,36.1,32.1.6,6.9-.9,13.5-3.8,19.1-1.3,2.4-2.7,4.4-3.9,5.9-1.8,2.3-3.7,4-5.2,5.2-9.1-8.2-17.7-12-21.4-12.9-4.3-1.1-8.8-1.2-8.8-1.2-.5,0-1.1,0-1.6,0h9.8c7.7,0,13.9-6.6,13.1-14.5,0-.4-.1-.9-.2-1.3h0c-1.2-5.7-6.7-10.2-12.6-10.5-.3,0-.6,0-.9,0h-32.4v32.7c-13.2,7.9-22,22.3-22,38.7Z"/>
            <path class="st4" d="M169.9,158.1c-.2.1-.4.3-.5.4.2-.1.3-.3.5-.4Z"/>
            <path class="st4" d="M180.8,153.9c-.3,0-.6,0-1,.1.3,0,.6-.1,1-.1Z"/>
            <path class="st4" d="M173.9,155.7c-.2.1-.5.2-.7.3.2-.1.5-.2.7-.3Z"/>
            <path class="st4" d="M176.1,154.9c-.3,0-.5.2-.8.3.3,0,.5-.2.8-.3Z"/>
            <path class="st4" d="M166.5,135c-1.2.5-2.4,1-3.6,1.6,1.2-.6,2.4-1.1,3.6-1.6Z"/>
            <path class="st4" d="M175.2,132.5c-1.3.2-2.6.5-3.8.9,1.3-.3,2.5-.6,3.8-.9Z"/>
            <path class="st4" d="M182.2,153.8c.3,0,.7,0,1,0-.3,0-.7,0-1,0Z"/>
            <path class="st4" d="M161,171.3c0,.2-.1.5-.2.7,0-.2.1-.5.2-.7Z"/>
            <path class="st4" d="M161.6,169c0,.2-.2.4-.2.7,0-.2.2-.4.2-.7Z"/>
            <path class="st4" d="M160.5,173.7c0,.2,0,.4-.1.7,0-.2,0-.4.1-.7Z"/>
            <path class="st4" d="M167.6,160c.2-.1.3-.3.5-.4-.2.1-.3.3-.5.4Z"/>
            <path class="st4" d="M180.3,131.8c-1.4,0-2.7.3-4.1.5,1.3-.2,2.7-.4,4.1-.5Z"/>
            <path class="st4" d="M163.6,164.9c-.1.2-.2.4-.3.5.1-.2.2-.4.3-.5Z"/>
            <path class="st4" d="M162.5,166.9c0,.2-.2.4-.3.6,0-.2.2-.4.3-.6Z"/>
            <path class="st4" d="M164.9,163c-.1.2-.2.3-.4.5.1-.2.2-.3.4-.5Z"/>
            <path class="st4" d="M166.4,161.2c-.1.1-.3.3-.4.4.1-.2.3-.3.4-.4Z"/>
            <path class="st8" d="M138.3,197v-20.2c0-25.6,21.4-46.3,47.3-45,24.2,1.2,42.8,22.1,42.8,46.3v7.9c0,3-1.2,5.8-3.2,7.8-2,2-4.7,3.2-7.8,3.2-6.1,0-11-4.9-11-11v-8.4c0-11.9-9.7-23.1-21.5-23.8-10.2-.7-19.1,5.3-22.8,14.1,0,.2-.1.3-.2.5-1.1,2.6-1.6,5.5-1.6,8.5v9.2c0,6.1-4.9,11-11,11h-11Z"/>
          </g>
          <path class="st1" d="M162.1,167.8c4.4-13.6,17.2-23.4,32.3-23.4s17.9,3.8,24,10c6.1,6.1,9.9,14.4,10,23.7v7.9c0,3-1.2,5.8-3.2,7.8-2,2-4.7,3.2-7.8,3.2-6.1,0-11-4.9-11-11v-8.4c0-11.9-9.7-23.1-21.5-23.8-10.2-.7-19.1,5.3-22.8,14.1Z"/>
          <path class="st2" d="M138.3,105.3v-11c0-6.1,4.9-11,11-11h20.8c10,0,19.1,4.1,25.6,10.6,5.7,5.7,9.5,13.3,10.4,21.8-1.2-5.6-6.7-10.1-12.6-10.4-.5,0-.9,0-1.4,0h-53.8Z"/>
        </g>
        <g>
          <g>
            <path class="st4" d="M358.1,202.5v28.6h-3.3l-15.6-22.5h-.3v22.5h-3.5v-28.6h3.4l15.6,22.5h.3v-22.5h3.4Z"/>
            <path class="st4" d="M369,231.1v-28.6h17.3v3.1h-13.8v9.7h12.9v3.1h-12.9v9.7h14v3.1h-17.5Z"/>
            <path class="st4" d="M398.1,202.5l7.4,11.9h.2l7.4-11.9h4.1l-9,14.3,9,14.3h-4.1l-7.4-11.7h-.2l-7.4,11.7h-4.1l9.2-14.3-9.2-14.3h4.1Z"/>
            <path class="st4" d="M424,205.6v-3.1h21.4v3.1h-9v25.5h-3.5v-25.5h-9Z"/>
            <path class="st4" d="M463.7,215.3v3.1h-12.5v-3.1h12.5Z"/>
            <path class="st4" d="M493.4,211.5c-.3-.9-.7-1.8-1.2-2.5-.5-.7-1.1-1.4-1.8-1.9-.7-.5-1.5-.9-2.3-1.2-.9-.3-1.8-.4-2.8-.4-1.7,0-3.2.4-4.6,1.3-1.4.9-2.5,2.2-3.3,3.9-.8,1.7-1.2,3.8-1.2,6.3s.4,4.6,1.2,6.3c.8,1.7,2,3,3.4,3.9,1.4.9,3,1.3,4.8,1.3s3.1-.4,4.3-1.1c1.3-.7,2.2-1.7,2.9-3,.7-1.3,1.1-2.8,1.1-4.6l1.1.2h-8.6v-3.1h10.9v3.1c0,2.4-.5,4.4-1.5,6.1-1,1.7-2.4,3.1-4.1,4-1.8,1-3.8,1.4-6,1.4s-4.8-.6-6.7-1.8c-1.9-1.2-3.4-2.9-4.5-5.1-1.1-2.2-1.6-4.8-1.6-7.8s.3-4.3.9-6.1c.6-1.8,1.5-3.4,2.6-4.6,1.1-1.3,2.4-2.3,4-2.9,1.5-.7,3.2-1,5-1s2.9.2,4.2.7c1.3.5,2.5,1.1,3.5,1.9,1,.8,1.9,1.8,2.6,2.9.7,1.1,1.2,2.4,1.4,3.8h-3.6Z"/>
            <path class="st4" d="M507,231.1v-28.6h17.3v3.1h-13.8v9.7h12.9v3.1h-12.9v9.7h14v3.1h-17.5Z"/>
            <path class="st4" d="M557.2,202.5v28.6h-3.4l-15.6-22.5h-.3v22.5h-3.5v-28.6h3.3l15.6,22.5h.3v-22.5h3.4Z"/>
            <path class="st4" d="M598.6,209.7c-.2-1.4-.8-2.5-2-3.3-1.2-.8-2.7-1.2-4.4-1.2s-2.4.2-3.3.6c-.9.4-1.7,1-2.2,1.7-.5.7-.8,1.5-.8,2.4s.2,1.4.6,2,.8,1,1.4,1.4c.6.4,1.2.7,1.8.9.6.2,1.2.4,1.7.6l2.9.8c.7.2,1.6.5,2.5.8.9.3,1.8.8,2.6,1.4.8.6,1.5,1.3,2.1,2.3.6.9.8,2.1.8,3.4s-.4,2.9-1.2,4.2c-.8,1.2-2,2.2-3.5,3-1.5.7-3.4,1.1-5.6,1.1s-3.8-.3-5.3-1c-1.5-.7-2.7-1.6-3.5-2.8-.9-1.2-1.3-2.6-1.4-4.1h3.6c0,1.1.5,2,1.1,2.7.6.7,1.4,1.2,2.4,1.6,1,.3,2,.5,3.2.5s2.5-.2,3.6-.7c1.1-.4,1.9-1,2.5-1.8.6-.8.9-1.7.9-2.7s-.3-1.7-.8-2.3c-.5-.6-1.2-1.1-2.1-1.5-.9-.4-1.8-.7-2.8-1l-3.5-1c-2.2-.6-4-1.6-5.3-2.8-1.3-1.2-2-2.8-2-4.7s.4-3,1.3-4.2c.9-1.2,2-2.1,3.5-2.8,1.5-.7,3.1-1,4.9-1s3.5.3,4.9,1c1.4.7,2.6,1.6,3.4,2.7.8,1.1,1.3,2.4,1.3,3.9h-3.3Z"/>
            <path class="st4" d="M612,231.1v-28.6h17.3v3.1h-13.8v9.7h12.9v3.1h-12.9v9.7h14v3.1h-17.5Z"/>
            <path class="st4" d="M640.6,231.1h-3.6l10.5-28.6h3.6l10.5,28.6h-3.6l-8.5-24.1h-.2l-8.5,24.1ZM642,219.9h14.6v3.1h-14.6v-3.1Z"/>
            <path class="st4" d="M670,231.1v-28.6h9.7c2.2,0,4.1.4,5.5,1.1,1.4.8,2.5,1.8,3.2,3.1.7,1.3,1,2.8,1,4.5s-.3,3.2-1,4.5c-.7,1.3-1.7,2.3-3.2,3.1-1.4.7-3.2,1.1-5.5,1.1h-7.8v-3.1h7.7c1.5,0,2.8-.2,3.7-.7.9-.4,1.6-1.1,2-1.9.4-.8.6-1.8.6-3s-.2-2.1-.6-3c-.4-.9-1.1-1.5-2.1-2-.9-.5-2.2-.7-3.7-.7h-6.1v25.5h-3.5ZM683.4,218.3l7,12.8h-4l-6.9-12.8h3.9Z"/>
            <path class="st4" d="M722,211.5h-3.5c-.2-1-.6-1.9-1.1-2.6-.5-.8-1.1-1.4-1.8-1.9-.7-.5-1.5-.9-2.4-1.2-.9-.3-1.8-.4-2.7-.4-1.7,0-3.3.4-4.7,1.3-1.4.9-2.5,2.2-3.3,3.9-.8,1.7-1.2,3.8-1.2,6.3s.4,4.6,1.2,6.3c.8,1.7,1.9,3,3.3,3.9,1.4.9,3,1.3,4.7,1.3s1.9-.1,2.7-.4c.9-.3,1.7-.6,2.4-1.2.7-.5,1.3-1.2,1.8-1.9.5-.8.9-1.6,1.1-2.6h3.5c-.3,1.5-.7,2.8-1.4,3.9-.7,1.2-1.5,2.1-2.6,2.9-1,.8-2.2,1.4-3.4,1.8-1.3.4-2.6.6-4.1.6-2.4,0-4.6-.6-6.5-1.8-1.9-1.2-3.4-2.9-4.5-5.1s-1.6-4.8-1.6-7.8.5-5.6,1.6-7.8c1.1-2.2,2.6-3.9,4.5-5.1,1.9-1.2,4.1-1.8,6.5-1.8s2.8.2,4.1.6c1.3.4,2.4,1,3.4,1.8,1,.8,1.9,1.8,2.6,2.9.7,1.1,1.2,2.5,1.4,3.9Z"/>
            <path class="st4" d="M731.6,231.1v-28.6h3.5v12.7h15.2v-12.7h3.5v28.6h-3.5v-12.8h-15.2v12.8h-3.5Z"/>
            <path class="st4" d="M779.6,231.1v-28.6h17.3v3.1h-13.8v9.7h12.9v3.1h-12.9v9.7h14v3.1h-17.5Z"/>
            <path class="st4" d="M808.7,202.5l7.4,11.9h.2l7.4-11.9h4.1l-9,14.3,9,14.3h-4.1l-7.4-11.7h-.2l-7.4,11.7h-4.1l9.2-14.3-9.2-14.3h4.1Z"/>
            <path class="st4" d="M836.2,231.1v-28.6h9.7c2.2,0,4.1.4,5.5,1.2,1.4.8,2.5,1.9,3.2,3.3.7,1.4,1,2.9,1,4.6s-.3,3.2-1,4.6c-.7,1.4-1.7,2.5-3.2,3.3-1.4.8-3.2,1.2-5.5,1.2h-6.9v-3.1h6.8c1.5,0,2.8-.3,3.7-.8.9-.5,1.6-1.2,2-2.2.4-.9.6-1.9.6-3.1s-.2-2.2-.6-3.1c-.4-.9-1.1-1.6-2-2.1-.9-.5-2.2-.8-3.7-.8h-6.1v25.5h-3.5Z"/>
            <path class="st4" d="M865.1,231.1v-28.6h17.3v3.1h-13.8v9.7h12.9v3.1h-12.9v9.7h14v3.1h-17.5Z"/>
            <path class="st4" d="M892.5,231.1v-28.6h9.7c2.2,0,4.1.4,5.5,1.1,1.4.8,2.5,1.8,3.2,3.1.7,1.3,1,2.8,1,4.5s-.3,3.2-1,4.5c-.7,1.3-1.7,2.3-3.2,3.1-1.4.7-3.2,1.1-5.5,1.1h-7.8v-3.1h7.7c1.5,0,2.8-.2,3.7-.7.9-.4,1.6-1.1,2-1.9.4-.8.6-1.8.6-3s-.2-2.1-.6-3c-.4-.9-1.1-1.5-2.1-2-.9-.5-2.2-.7-3.7-.7h-6.1v25.5h-3.5ZM906,218.3l7,12.8h-4l-6.9-12.8h3.9Z"/>
            <path class="st4" d="M920,205.6v-3.1h21.4v3.1h-9v25.5h-3.5v-25.5h-9Z"/>
            <path class="st4" d="M966.4,209.7c-.2-1.4-.8-2.5-2-3.3-1.2-.8-2.7-1.2-4.4-1.2s-2.4.2-3.3.6c-.9.4-1.7,1-2.2,1.7-.5.7-.8,1.5-.8,2.4s.2,1.4.6,2,.8,1,1.4,1.4c.6.4,1.2.7,1.8.9.6.2,1.2.4,1.7.6l2.9.8c.7.2,1.6.5,2.5.8.9.3,1.8.8,2.6,1.4.8.6,1.5,1.3,2.1,2.3.5.9.8,2.1.8,3.4s-.4,2.9-1.2,4.2c-.8,1.2-2,2.2-3.5,3-1.5.7-3.4,1.1-5.6,1.1s-3.8-.3-5.3-1c-1.5-.7-2.7-1.6-3.5-2.8-.9-1.2-1.3-2.6-1.4-4.1h3.6c0,1.1.5,2,1.1,2.7.6.7,1.4,1.2,2.4,1.6,1,.3,2,.5,3.2.5s2.5-.2,3.6-.7c1.1-.4,1.9-1,2.5-1.8.6-.8.9-1.7.9-2.7s-.3-1.7-.8-2.3c-.5-.6-1.2-1.1-2.1-1.5-.9-.4-1.8-.7-2.8-1l-3.5-1c-2.2-.6-4-1.6-5.3-2.8-1.3-1.2-2-2.8-2-4.7s.4-3,1.3-4.2c.9-1.2,2-2.1,3.5-2.8,1.5-.7,3.1-1,4.9-1s3.5.3,4.9,1c1.4.7,2.6,1.6,3.4,2.7.8,1.1,1.3,2.4,1.3,3.9h-3.3Z"/>
          </g>
          <g>
            <polygon class="st4" points="372.3 48.8 345.8 105.7 319.3 48.8 296.5 48.8 335.2 126.8 335.2 177.9 356.4 177.9 356.4 126.8 395.1 48.8 372.3 48.8"/>
            <path class="st4" d="M429.4,84.4c-12.4,0-21.9,3.5-28.7,10.4-6.8,6.9-10.2,16.7-10.2,29.3v15c0,12.7,3.4,22.6,10.2,29.6,6.8,7,16.4,10.5,28.7,10.5s21.9-3.5,28.7-10.4c6.8-7,10.2-16.8,10.2-29.4v-15.3c0-12.6-3.4-22.4-10.2-29.3-6.8-6.9-16.4-10.4-28.7-10.4ZM447.1,139.4c0,6.2-1.5,11-4.6,14.4-3.1,3.4-7.4,5.1-13.1,5.1s-9.9-1.7-13-5.1c-3.1-3.4-4.7-8.2-4.7-14.4v-15.3c0-6.2,1.6-10.9,4.7-14.3,3.1-3.4,7.4-5.1,13-5.1s10,1.7,13.1,5.1c3.1,3.4,4.6,8.1,4.6,14.3v15.3Z"/>
            <path class="st4" d="M540.7,142.6c0,5.2-1.4,9.2-4.3,12.1-2.8,2.8-6.9,4.3-12.2,4.3s-9.4-1.5-12.3-4.5c-2.9-3-4.4-7.2-4.4-12.7v-56h-21.2v56.5c0,11.7,2.7,20.8,8.2,27.3,5.5,6.5,13.2,9.7,23.2,9.7s11.7-1.7,15.7-5.2c3.1-2.7,5.5-5.7,7.1-9v12.8h21.1v-92.2h-21.1v56.8Z"/>
            <path class="st4" d="M658.8,119.9c5.4-3.2,9.7-7.6,12.8-13.3,3.1-5.7,4.6-12.3,4.6-20s-1.5-14.3-4.6-20c-3-5.7-7.3-10.1-12.8-13.2-5.5-3.1-11.9-4.7-19.2-4.7h-53.9v129.2h21.2v-53.3h20.9l28.3,53.3h25.5l-30.3-54.9c2.7-.8,5.2-1.8,7.5-3.1ZM607,69.1h32.1c4.6,0,8.2,1.6,11,4.8,2.8,3.2,4.1,7.5,4.1,12.7,0,5.3-1.5,9.6-4.2,12.8-2.7,3.2-6.4,4.8-10.9,4.8h-32.1v-35.3Z"/>
            <path class="st4" d="M730,84.4c-7.2,0-13.7,1.2-19.5,3.5-5.9,2.3-10.6,5.6-14.2,9.8l14.1,11.9c2.7-2.1,5.8-3.7,9.2-4.7,3.4-1.1,6.9-1.6,10.5-1.6,5.6,0,9.9,1.4,12.9,4.3,3,2.8,4.6,6.8,4.6,12v3.9h-23.9c-10.7,0-18.6,2.3-24,6.8-5.3,4.5-8,11.4-8,20.6s2.6,16.8,7.9,21.5c5.3,4.7,13.2,7,23.8,7s7.9-.5,11.5-1.4c3.6-.9,6.6-2.4,9.2-4.3,1.4-1.1,2.6-2.3,3.5-3.7v8.1h19.6v-59.2c0-10.9-3.2-19.3-9.7-25.3-6.5-6-15.6-9-27.5-9ZM742.6,159.9c-3.3,1.5-8.3,2.2-15,2.2s-9.6-.9-12.3-2.8c-2.7-1.9-4.1-4.7-4.1-8.6s1-6.4,3.2-8.2c2.1-1.8,5.3-2.7,9.5-2.7h23.8v13.1c0,3.1-1.7,5.4-5,6.9Z"/>
            <path class="st4" d="M834.2,84.4c-5.9,0-10.9,1.5-15.1,4.5-3.3,2.4-6.1,5.6-8.5,9.5v-12.7h-21.2v92.2h21.2v-57c0-5.1,1.4-9.1,4.3-11.9,2.8-2.8,6.9-4.3,12.1-4.3s9.6,1.5,12.6,4.5c3,3,4.4,7.3,4.4,12.8v55.9h21.2v-55.9c0-12-2.7-21.2-8.1-27.7-5.4-6.5-13-9.8-22.9-9.8Z"/>
            <polygon class="st4" points="946.3 177.9 970.1 177.9 937.2 120.3 965.6 85.8 942.1 85.8 908.5 128.9 908.5 48.8 887.3 48.8 887.3 177.9 908.5 177.9 908.5 155.1 923.6 136.8 946.3 177.9"/>
          </g>
        </g>
      </g>
    </g>
  </g>
</svg>