<?xml version="1.0" encoding="UTF-8"?>
<svg id="Layer_1" xmlns="http://www.w3.org/2000/svg" version="1.1" xmlns:xlink="http://www.w3.org/1999/xlink" viewBox="0 0 1000 280.4">
  <!-- Generator: Adobe Illustrator 29.5.1, SVG Export Plug-In . SVG Version: 2.1.0 Build 141)  -->
  <defs>
    <style>
      .st0 {
        fill: url(#linear-gradient2);
      }

      .st1 {
        fill: #fff;
      }

      .st2 {
        fill: url(#linear-gradient1);
      }

      .st3 {
        fill: none;
      }

      .st4 {
        fill: url(#linear-gradient3);
      }

      .st5 {
        fill: #69ffea;
      }

      .st6 {
        fill: url(#linear-gradient);
      }
    </style>
    <linearGradient id="linear-gradient" x1="2204.4" y1="107.9" x2="2279.7" y2="111.5" gradientTransform="translate(-2145.8 0)" gradientUnits="userSpaceOnUse">
      <stop offset="0" stop-color="#fff" stop-opacity="0"/>
      <stop offset=".4" stop-color="#cdcdcd" stop-opacity=".5"/>
      <stop offset=".8" stop-color="#a7a7a7" stop-opacity=".9"/>
      <stop offset="1" stop-color="#999"/>
    </linearGradient>
    <linearGradient id="linear-gradient1" x1="88.5" y1="181.3" x2="153.5" y2="181.3" gradientUnits="userSpaceOnUse">
      <stop offset="0" stop-color="#999"/>
      <stop offset="0" stop-color="#9f9f9f" stop-opacity=".9"/>
      <stop offset=".3" stop-color="#c1c1c1" stop-opacity=".6"/>
      <stop offset=".5" stop-color="#dbdbdb" stop-opacity=".3"/>
      <stop offset=".7" stop-color="#efefef" stop-opacity=".2"/>
      <stop offset=".9" stop-color="#fafafa" stop-opacity="0"/>
      <stop offset="1" stop-color="#fff" stop-opacity="0"/>
    </linearGradient>
    <linearGradient id="linear-gradient2" x1="-4826.6" y1="-286.9" x2="-4751.3" y2="-283.2" gradientTransform="translate(-4598 -114.4) rotate(-180)" xlink:href="#linear-gradient"/>
    <linearGradient id="linear-gradient3" x1="-6942.5" y1="-213.4" x2="-6877.5" y2="-213.4" gradientTransform="translate(-6743.8 -114.4) rotate(-180)" xlink:href="#linear-gradient1"/>
  </defs>
  <g>
    <circle cx="143.6" cy="140.2" r="121.2"/>
    <g>
      <g>
        <path class="st3" d="M99,148.7c-8,0-14.3,7-13.3,15.1.9,6.7,6.9,11.6,13.7,11.6h33v-33.2c-.9.5-1.7,1-2.6,1.5,0,0,0,0,0,0-1.2.6-2.4,1.1-3.6,1.6-.3.1-.6.2-.9.4-1.3.5-2.5.9-3.9,1.3,0,0-.1,0-.2,0-1.3.4-2.6.6-3.9.9-.3,0-.7.1-1,.2-1.4.2-2.7.4-4.2.5,0,0-.2,0-.3,0-.9,0-1.9,0-2.8,0h-10Z"/>
        <path class="st5" d="M126.7,118.4c.4-.4.7-.9,1.1-1.3-.3.5-.7.9-1.1,1.3Z"/>
        <path class="st5" d="M129.4,114.6c.3-.5.5-1,.8-1.5-.2.5-.5,1-.8,1.5Z"/>
        <path class="st5" d="M128.1,116.6c.3-.5.6-1,.9-1.4-.3.5-.6,1-.9,1.4Z"/>
        <path class="st5" d="M132.3,105.5c0-.8.1-1.6.1-2.5,0,.8,0,1.7-.1,2.5Z"/>
        <path class="st5" d="M132,107.9c.1-.6.2-1.2.3-1.7,0,.6-.2,1.2-.3,1.7Z"/>
        <path class="st5" d="M130.5,112.5c.2-.5.4-1,.6-1.6-.2.5-.4,1.1-.6,1.6Z"/>
        <path class="st5" d="M131.3,110.2c.2-.5.3-1.1.4-1.6-.1.5-.3,1.1-.4,1.6Z"/>
        <path class="st5" d="M115,125.7c.5-.1,1-.3,1.4-.4-.5.2-.9.3-1.4.4Z"/>
        <path class="st5" d="M112.7,126.1c.5,0,1-.1,1.4-.3-.5.1-.9.2-1.4.3Z"/>
        <path class="st5" d="M110.2,126.4c.5,0,1,0,1.5,0-.5,0-1,0-1.5,0Z"/>
        <path class="st5" d="M123.3,121.6c.4-.3.9-.7,1.3-1.1-.4.4-.9.7-1.3,1.1Z"/>
        <path class="st5" d="M121.4,122.9c.5-.3.9-.6,1.4-.9-.4.3-.9.6-1.4.9Z"/>
        <path class="st5" d="M119.3,124c.5-.2,1-.5,1.4-.8-.5.3-.9.5-1.4.8Z"/>
        <path class="st5" d="M117.2,125c.5-.2,1-.4,1.4-.6-.5.2-.9.4-1.4.6Z"/>
        <path class="st5" d="M111.9,148.6c0,0,.2,0,.3,0,0,0-.2,0-.3,0Z"/>
        <path class="st5" d="M129.8,143.8s0,0,0,0c0,0,0,0,0,0Z"/>
        <path class="st5" d="M116.3,148.1c.3,0,.7-.1,1-.2-.3,0-.7.1-1,.2Z"/>
        <path class="st5" d="M125.2,145.8c.3-.1.6-.2.9-.4-.3.1-.6.2-.9.4Z"/>
        <path class="st5" d="M126.3,118.9c-.4.4-.8.8-1.2,1.2.4-.4.8-.8,1.2-1.2Z"/>
        <path class="st5" d="M121.2,147.1c0,0,.1,0,.2,0,0,0-.1,0-.2,0Z"/>
        <path class="st1" d="M121.4,147.1c1.3-.4,2.6-.8,3.9-1.3-1.3.5-2.5.9-3.9,1.3Z"/>
        <path class="st1" d="M120.8,123.3c.2-.1.4-.2.6-.4-.2.1-.4.3-.6.4Z"/>
        <path class="st1" d="M114.1,125.9c.3,0,.6-.2.9-.2-.3,0-.6.2-.9.2Z"/>
        <path class="st1" d="M122.8,122c.2-.1.4-.3.5-.4-.2.1-.4.3-.5.4Z"/>
        <path class="st1" d="M111.7,126.3c.3,0,.7,0,1-.1-.3,0-.6.1-1,.1Z"/>
        <path class="st1" d="M118.6,124.4c.2-.1.5-.2.7-.3-.2.1-.5.2-.7.3Z"/>
        <path class="st1" d="M116.4,125.3c.3,0,.5-.2.8-.3-.3,0-.5.2-.8.3Z"/>
        <path class="st1" d="M126.1,145.4c1.2-.5,2.5-1,3.6-1.6-1.2.6-2.4,1.1-3.6,1.6Z"/>
        <path class="st1" d="M117.3,148c1.3-.2,2.6-.5,3.9-.9-1.3.4-2.6.6-3.9.9Z"/>
        <path class="st1" d="M110.2,126.4c-.3,0-.7,0-1,0,.3,0,.7,0,1,0Z"/>
        <path class="st1" d="M131.8,108.6c0-.2.1-.5.2-.7,0,.2-.1.5-.2.7Z"/>
        <path class="st1" d="M131.1,110.9c0-.2.2-.4.2-.7,0,.2-.2.4-.2.7Z"/>
        <path class="st1" d="M132.2,106.2c0-.2,0-.4.1-.7,0,.2,0,.4-.1.7Z"/>
        <path class="st1" d="M125.1,120.1c-.2.1-.3.3-.5.4.2-.1.3-.3.5-.4Z"/>
        <path class="st1" d="M112.2,148.6c1.4,0,2.8-.3,4.2-.5-1.4.2-2.7.4-4.2.5Z"/>
        <path class="st1" d="M129.1,115.1c.1-.2.2-.4.3-.5-.1.2-.2.4-.3.5Z"/>
        <path class="st1" d="M130.2,113.1c0-.2.2-.4.3-.6,0,.2-.2.4-.3.6Z"/>
        <path class="st1" d="M127.8,117.1c.1-.2.2-.3.4-.5-.1.2-.2.3-.4.5Z"/>
        <path class="st1" d="M126.3,118.9c.1-.1.3-.3.4-.5-.1.2-.3.3-.4.5Z"/>
        <path class="st1" d="M154.8,82.6v20.5c0,26-21.8,47-48,45.6-24.6-1.2-43.4-22.4-43.4-47v-8c0-3.1,1.2-5.9,3.3-7.9,2-2,4.8-3.3,7.9-3.3,6.2,0,11.1,5,11.1,11.2v8.5c0,12.1,9.8,23.4,21.8,24.2,10.4.7,19.4-5.4,23.2-14.3,0-.2.1-.3.2-.5,1.1-2.7,1.7-5.6,1.7-8.6v-9.3c0-6.2,5-11.2,11.2-11.2h11.1Z"/>
        <path class="st6" d="M130.6,112.1c-4.5,13.8-17.5,23.7-32.8,23.7s-18.1-3.9-24.4-10.1c-6.2-6.2-10-14.7-10.1-24.1v-8c0-3.1,1.2-5.9,3.3-7.9,2-2,4.8-3.3,7.9-3.3,6.2,0,11.1,5,11.1,11.2v8.5c0,12.1,9.8,23.4,21.8,24.2,10.4.7,19.4-5.4,23.2-14.3Z"/>
        <path class="st1" d="M154.7,103v83.6c0,6.2-5,11.1-11.1,11.1h-43.6c-18.7,0-35-13.9-36.6-32.6-.6-7.2.9-13.9,4.1-19.8,2.2-4.2,5.2-7.8,8.8-10.8l1.8-1.5,2,.7,5.8,1.4,22,7.1s2.2,1.5,2.4,1.7c.3.1-1.5,4.8-1.5,4.8h-10c-7.8,0-14.1,6.8-13.3,14.7,0,.5.1.9.2,1.3,0,0,0,0,0,0,1.3,6,7.4,10.7,13.7,10.7h32.8v-33.2c13.4-8,22.3-22.6,22.3-39.3Z"/>
        <path class="st2" d="M154.7,175.5v11.1c0,6.2-5,11.1-11.1,11.1h-21.2c-10.1,0-19.3-4.1-26-10.8-5.8-5.8-9.7-13.5-10.5-22.2,1.3,6,7.4,10.7,13.7,10.7h55.1Z"/>
      </g>
      <g>
        <path class="st3" d="M188.2,131.6c8,0,14.3-7,13.3-15.1-.9-6.7-6.9-11.6-13.7-11.6h-33v33.2c.9-.5,1.7-1,2.6-1.5,0,0,0,0,0,0,1.2-.6,2.4-1.1,3.6-1.6.3-.1.6-.2.9-.4,1.3-.5,2.5-.9,3.9-1.3,0,0,.1,0,.2,0,1.3-.4,2.6-.6,3.9-.9.3,0,.7-.1,1-.2,1.4-.2,2.7-.4,4.2-.5,0,0,.2,0,.3,0,.9,0,1.9,0,2.8,0h10Z"/>
        <path class="st5" d="M160.5,161.9c-.4.4-.7.9-1.1,1.3.3-.5.7-.9,1.1-1.3Z"/>
        <path class="st5" d="M157.8,165.8c-.3.5-.5,1-.8,1.5.2-.5.5-1,.8-1.5Z"/>
        <path class="st5" d="M159.1,163.8c-.3.5-.6,1-.9,1.4.3-.5.6-1,.9-1.4Z"/>
        <path class="st5" d="M154.9,174.8c0,.8-.1,1.6-.1,2.5,0-.8,0-1.7.1-2.5Z"/>
        <path class="st5" d="M155.3,172.4c-.1.6-.2,1.2-.3,1.7,0-.6.2-1.2.3-1.7Z"/>
        <path class="st5" d="M156.8,167.9c-.2.5-.4,1-.6,1.6.2-.5.4-1.1.6-1.6Z"/>
        <path class="st5" d="M155.9,170.1c-.2.5-.3,1.1-.4,1.6.1-.5.3-1.1.4-1.6Z"/>
        <path class="st5" d="M172.2,154.7c-.5.1-1,.3-1.4.4.5-.2.9-.3,1.4-.4Z"/>
        <path class="st5" d="M174.6,154.2c-.5,0-1,.1-1.4.3.5-.1.9-.2,1.4-.3Z"/>
        <path class="st5" d="M177,154c-.5,0-1,0-1.5,0,.5,0,1,0,1.5,0Z"/>
        <path class="st5" d="M163.9,158.8c-.4.3-.9.7-1.3,1.1.4-.4.9-.7,1.3-1.1Z"/>
        <path class="st5" d="M165.8,157.4c-.5.3-.9.6-1.4.9.4-.3.9-.6,1.4-.9Z"/>
        <path class="st5" d="M167.9,156.3c-.5.2-1,.5-1.4.8.5-.3.9-.5,1.4-.8Z"/>
        <path class="st5" d="M170,155.4c-.5.2-1,.4-1.4.6.5-.2.9-.4,1.4-.6Z"/>
        <path class="st5" d="M175.3,131.7c0,0-.2,0-.3,0,0,0,.2,0,.3,0Z"/>
        <path class="st5" d="M157.4,136.6s0,0,0,0c0,0,0,0,0,0Z"/>
        <path class="st5" d="M170.9,132.2c-.3,0-.7.1-1,.2.3,0,.7-.1,1-.2Z"/>
        <path class="st5" d="M162,134.6c-.3.1-.6.2-.9.4.3-.1.6-.2.9-.4Z"/>
        <path class="st5" d="M161,161.5c.4-.4.8-.8,1.2-1.2-.4.4-.8.8-1.2,1.2Z"/>
        <path class="st5" d="M166,133.3c0,0-.1,0-.2,0,0,0,.1,0,.2,0Z"/>
        <path class="st1" d="M165.9,133.3c-1.3.4-2.6.8-3.9,1.3,1.3-.5,2.5-.9,3.9-1.3Z"/>
        <path class="st1" d="M166.5,157.1c-.2.1-.4.2-.6.4.2-.1.4-.3.6-.4Z"/>
        <path class="st1" d="M173.1,154.5c-.3,0-.6.2-.9.2.3,0,.6-.2.9-.2Z"/>
        <path class="st1" d="M164.5,158.4c-.2.1-.4.3-.5.4.2-.1.4-.3.5-.4Z"/>
        <path class="st1" d="M175.5,154.1c-.3,0-.7,0-1,.1.3,0,.6-.1,1-.1Z"/>
        <path class="st1" d="M168.6,156c-.2.1-.5.2-.7.3.2-.1.5-.2.7-.3Z"/>
        <path class="st1" d="M170.8,155.1c-.3,0-.5.2-.8.3.3,0,.5-.2.8-.3Z"/>
        <path class="st1" d="M161.1,134.9c-1.2.5-2.5,1-3.6,1.6,1.2-.6,2.4-1.1,3.6-1.6Z"/>
        <path class="st1" d="M169.9,132.4c-1.3.2-2.6.5-3.9.9,1.3-.4,2.6-.6,3.9-.9Z"/>
        <path class="st1" d="M177,154c.3,0,.7,0,1,0-.3,0-.7,0-1,0Z"/>
        <path class="st1" d="M155.5,171.7c0,.2-.1.5-.2.7,0-.2.1-.5.2-.7Z"/>
        <path class="st1" d="M156.1,169.4c0,.2-.2.4-.2.7,0-.2.2-.4.2-.7Z"/>
        <path class="st1" d="M155,174.2c0,.2,0,.4-.1.7,0-.2,0-.4.1-.7Z"/>
        <path class="st1" d="M162.2,160.3c.2-.1.3-.3.5-.4-.2.1-.3.3-.5.4Z"/>
        <path class="st1" d="M175.1,131.7c-1.4,0-2.8.3-4.2.5,1.4-.2,2.7-.4,4.2-.5Z"/>
        <path class="st1" d="M158.1,165.2c-.1.2-.2.4-.3.5.1-.2.2-.4.3-.5Z"/>
        <path class="st1" d="M157,167.3c0,.2-.2.4-.3.6,0-.2.2-.4.3-.6Z"/>
        <path class="st1" d="M159.5,163.3c-.1.2-.2.3-.4.5.1-.2.2-.3.4-.5Z"/>
        <path class="st1" d="M161,161.5c-.1.1-.3.3-.4.5.1-.2.3-.3.4-.5Z"/>
        <path class="st1" d="M132.5,197.8v-20.5c0-26,21.8-47,48-45.6,24.6,1.2,43.4,22.4,43.4,47v8c0,3.1-1.2,5.9-3.3,7.9-2,2-4.8,3.3-7.9,3.3-6.2,0-11.1-5-11.1-11.2v-8.5c0-12.1-9.8-23.4-21.8-24.2-10.4-.7-19.4,5.4-23.2,14.3,0,.2-.1.3-.2.5-1.1,2.7-1.7,5.6-1.7,8.6v9.3c0,6.2-5,11.2-11.2,11.2h-11.1Z"/>
        <path class="st0" d="M156.6,168.2c4.5-13.8,17.5-23.7,32.8-23.7s18.1,3.9,24.4,10.1c6.2,6.2,10,14.7,10.1,24.1v8c0,3.1-1.2,5.9-3.3,7.9-2,2-4.8,3.3-7.9,3.3-6.2,0-11.1-5-11.1-11.2v-8.5c0-12.1-9.8-23.4-21.8-24.2-10.4-.7-19.4,5.4-23.2,14.3Z"/>
        <path class="st1" d="M132.5,177.3v-83.6c0-6.2,5-11.1,11.1-11.1h43.6c18.7,0,35,13.9,36.6,32.6.6,7.2-.9,13.9-4.1,19.8-2.2,4.2-5.2,7.8-8.8,10.8l-1.8,1.5-2-.7-5.8-1.4-22-7.1s-2.2-1.5-2.4-1.7c-.3-.1,1.5-4.8,1.5-4.8h10c7.8,0,14.1-6.8,13.3-14.7,0-.5-.1-.9-.2-1.3,0,0,0,0,0,0-1.3-6-7.4-10.7-13.7-10.7h-32.8v33.2c-13.4,8-22.3,22.6-22.3,39.3Z"/>
        <path class="st4" d="M132.5,104.9v-11.1c0-6.2,5-11.1,11.1-11.1h21.2c10.1,0,19.3,4.1,26,10.8,5.8,5.8,9.7,13.5,10.5,22.2-1.3-6-7.4-10.7-13.7-10.7h-55.1Z"/>
      </g>
    </g>
  </g>
  <g>
    <g>
      <path d="M356.4,203.5v29h-3.4l-15.8-22.8h-.3v22.8h-3.5v-29h3.4l15.9,22.8h.3v-22.8h3.5Z"/>
      <path d="M367.4,232.5v-29h17.5v3.1h-14v9.8h13.1v3.1h-13.1v9.9h14.2v3.1h-17.7Z"/>
      <path d="M397,203.5l7.5,12.1h.2l7.5-12.1h4.1l-9.1,14.5,9.1,14.5h-4.1l-7.5-11.8h-.2l-7.5,11.8h-4.1l9.4-14.5-9.4-14.5h4.1Z"/>
      <path d="M423.3,206.6v-3.1h21.8v3.1h-9.1v25.9h-3.5v-25.9h-9.1Z"/>
      <path d="M463.6,216.4v3.1h-12.7v-3.1h12.7Z"/>
      <path d="M493.8,212.5c-.3-1-.7-1.8-1.2-2.6-.5-.8-1.1-1.4-1.8-1.9-.7-.5-1.5-.9-2.4-1.2-.9-.3-1.8-.4-2.9-.4-1.7,0-3.3.4-4.7,1.3-1.4.9-2.5,2.2-3.4,3.9-.8,1.7-1.2,3.8-1.2,6.4s.4,4.6,1.3,6.4c.8,1.7,2,3,3.4,3.9,1.4.9,3.1,1.3,4.8,1.3s3.1-.4,4.4-1.1c1.3-.7,2.3-1.7,3-3,.7-1.3,1.1-2.9,1.1-4.6l1.1.2h-8.7v-3.1h11.1v3.1c0,2.4-.5,4.5-1.5,6.2-1,1.8-2.4,3.1-4.2,4.1-1.8,1-3.8,1.5-6.1,1.5s-4.8-.6-6.8-1.8c-1.9-1.2-3.5-2.9-4.5-5.2-1.1-2.2-1.6-4.9-1.6-7.9s.3-4.4.9-6.2c.6-1.8,1.5-3.4,2.6-4.7,1.1-1.3,2.5-2.3,4-3,1.6-.7,3.3-1,5.1-1s3,.2,4.3.7c1.3.5,2.5,1.1,3.6,1.9,1,.8,1.9,1.8,2.6,3s1.2,2.4,1.4,3.8h-3.6Z"/>
      <path d="M507.6,232.5v-29h17.5v3.1h-14v9.8h13.1v3.1h-13.1v9.9h14.2v3.1h-17.7Z"/>
      <path d="M558.4,203.5v29h-3.4l-15.8-22.8h-.3v22.8h-3.5v-29h3.4l15.9,22.8h.3v-22.8h3.5Z"/>
      <path d="M600.5,210.7c-.2-1.4-.9-2.6-2.1-3.3-1.2-.8-2.7-1.2-4.4-1.2s-2.4.2-3.4.6c-1,.4-1.7,1-2.2,1.7-.5.7-.8,1.6-.8,2.5s.2,1.4.6,2c.4.6.9,1,1.4,1.4.6.4,1.2.7,1.8.9.6.2,1.2.4,1.8.6l2.9.8c.8.2,1.6.5,2.5.8.9.3,1.8.8,2.7,1.4.9.6,1.6,1.4,2.1,2.3.6.9.8,2.1.8,3.4s-.4,3-1.2,4.3c-.8,1.3-2,2.3-3.6,3-1.6.7-3.5,1.1-5.7,1.1s-3.9-.3-5.4-1c-1.5-.7-2.7-1.6-3.6-2.8-.9-1.2-1.4-2.6-1.5-4.2h3.6c0,1.1.5,2,1.1,2.7.6.7,1.5,1.2,2.5,1.6,1,.3,2.1.5,3.2.5s2.5-.2,3.6-.7c1.1-.4,1.9-1.1,2.5-1.8.6-.8.9-1.7.9-2.8s-.3-1.7-.8-2.4c-.5-.6-1.2-1.1-2.1-1.5-.9-.4-1.8-.7-2.8-1l-3.6-1c-2.3-.7-4.1-1.6-5.4-2.8-1.3-1.2-2-2.8-2-4.7s.4-3,1.3-4.3c.9-1.2,2.1-2.2,3.6-2.8,1.5-.7,3.2-1,5-1s3.5.3,5,1c1.5.7,2.6,1.6,3.5,2.7.9,1.2,1.3,2.5,1.4,3.9h-3.4Z"/>
      <path d="M614.1,232.5v-29h17.5v3.1h-14v9.8h13.1v3.1h-13.1v9.9h14.2v3.1h-17.7Z"/>
      <path d="M643.1,232.5h-3.7l10.7-29h3.6l10.7,29h-3.7l-8.7-24.4h-.2l-8.7,24.4ZM644.5,221.1h14.9v3.1h-14.9v-3.1Z"/>
      <path d="M672.9,232.5v-29h9.8c2.3,0,4.1.4,5.6,1.2,1.5.8,2.5,1.8,3.2,3.2s1,2.9,1,4.6-.3,3.2-1,4.5-1.8,2.4-3.2,3.1c-1.4.8-3.3,1.1-5.5,1.1h-7.9v-3.2h7.8c1.6,0,2.8-.2,3.8-.7.9-.5,1.6-1.1,2.1-1.9.4-.8.6-1.8.6-3s-.2-2.2-.7-3c-.4-.9-1.1-1.5-2.1-2-1-.5-2.2-.7-3.8-.7h-6.2v25.9h-3.5ZM686.6,219.4l7.1,13h-4.1l-7-13h4Z"/>
      <path d="M725.8,212.5h-3.5c-.2-1-.6-1.9-1.1-2.7-.5-.8-1.1-1.4-1.9-1.9-.7-.5-1.5-.9-2.4-1.2-.9-.3-1.8-.4-2.8-.4-1.8,0-3.3.4-4.8,1.3-1.4.9-2.6,2.2-3.4,3.9-.8,1.7-1.3,3.8-1.3,6.4s.4,4.6,1.3,6.4c.8,1.7,2,3,3.4,3.9,1.4.9,3,1.3,4.8,1.3s1.9-.1,2.8-.4c.9-.3,1.7-.7,2.4-1.2.7-.5,1.4-1.2,1.9-1.9.5-.8.9-1.7,1.1-2.7h3.5c-.3,1.5-.7,2.8-1.4,4s-1.6,2.2-2.6,3c-1,.8-2.2,1.4-3.5,1.9-1.3.4-2.7.6-4.1.6-2.5,0-4.7-.6-6.6-1.8-1.9-1.2-3.4-2.9-4.5-5.2-1.1-2.2-1.7-4.9-1.7-7.9s.6-5.7,1.7-7.9c1.1-2.2,2.6-3.9,4.5-5.2,1.9-1.2,4.1-1.8,6.6-1.8s2.8.2,4.1.6c1.3.4,2.5,1,3.5,1.9,1,.8,1.9,1.8,2.6,3,.7,1.2,1.2,2.5,1.4,4Z"/>
      <path d="M735.4,232.5v-29h3.5v12.9h15.5v-12.9h3.5v29h-3.5v-13h-15.5v13h-3.5Z"/>
      <path d="M784.2,232.5v-29h17.5v3.1h-14v9.8h13.1v3.1h-13.1v9.9h14.2v3.1h-17.7Z"/>
      <path d="M813.7,203.5l7.5,12.1h.2l7.5-12.1h4.1l-9.1,14.5,9.1,14.5h-4.1l-7.5-11.8h-.2l-7.5,11.8h-4.1l9.4-14.5-9.4-14.5h4.1Z"/>
      <path d="M841.6,232.5v-29h9.8c2.3,0,4.1.4,5.6,1.2,1.4.8,2.5,1.9,3.2,3.3.7,1.4,1,2.9,1,4.6s-.3,3.3-1,4.7c-.7,1.4-1.8,2.5-3.2,3.3-1.4.8-3.3,1.2-5.6,1.2h-7v-3.1h6.9c1.6,0,2.8-.3,3.8-.8.9-.5,1.6-1.3,2.1-2.2.4-.9.6-2,.6-3.1s-.2-2.2-.6-3.1c-.4-.9-1.1-1.6-2.1-2.2-1-.5-2.2-.8-3.8-.8h-6.2v25.9h-3.5Z"/>
      <path d="M871,232.5v-29h17.5v3.1h-14v9.8h13.1v3.1h-13.1v9.9h14.2v3.1h-17.7Z"/>
      <path d="M898.8,232.5v-29h9.8c2.3,0,4.1.4,5.6,1.2,1.5.8,2.5,1.8,3.2,3.2.7,1.3,1.1,2.9,1.1,4.6s-.4,3.2-1.1,4.5c-.7,1.3-1.8,2.4-3.2,3.1s-3.3,1.1-5.5,1.1h-7.9v-3.2h7.8c1.6,0,2.8-.2,3.8-.7.9-.5,1.6-1.1,2.1-1.9.4-.8.6-1.8.6-3s-.2-2.2-.7-3c-.4-.9-1.1-1.5-2.1-2-1-.5-2.2-.7-3.8-.7h-6.2v25.9h-3.5ZM912.5,219.4l7.1,13h-4.1l-7-13h4Z"/>
      <path d="M926.7,206.6v-3.1h21.8v3.1h-9.1v25.9h-3.5v-25.9h-9.1Z"/>
      <path d="M973.8,210.7c-.2-1.4-.9-2.6-2.1-3.3-1.2-.8-2.7-1.2-4.4-1.2s-2.4.2-3.4.6c-1,.4-1.7,1-2.2,1.7-.5.7-.8,1.6-.8,2.5s.2,1.4.6,2,.9,1,1.4,1.4,1.2.7,1.8.9c.6.2,1.2.4,1.8.6l2.9.8c.8.2,1.6.5,2.5.8.9.3,1.8.8,2.7,1.4.9.6,1.6,1.4,2.1,2.3.6.9.8,2.1.8,3.4s-.4,3-1.2,4.3c-.8,1.3-2,2.3-3.6,3-1.6.7-3.5,1.1-5.7,1.1s-3.9-.3-5.4-1c-1.5-.7-2.7-1.6-3.6-2.8-.9-1.2-1.4-2.6-1.5-4.2h3.6c0,1.1.5,2,1.1,2.7.6.7,1.5,1.2,2.5,1.6,1,.3,2.1.5,3.2.5s2.5-.2,3.6-.7c1.1-.4,1.9-1.1,2.5-1.8.6-.8.9-1.7.9-2.8s-.3-1.7-.8-2.4c-.5-.6-1.2-1.1-2.1-1.5-.9-.4-1.8-.7-2.8-1l-3.6-1c-2.3-.7-4.1-1.6-5.4-2.8-1.3-1.2-2-2.8-2-4.7s.4-3,1.3-4.3c.9-1.2,2.1-2.2,3.6-2.8,1.5-.7,3.2-1,5-1s3.5.3,5,1c1.5.7,2.6,1.6,3.5,2.7.9,1.2,1.3,2.5,1.4,3.9h-3.4Z"/>
    </g>
    <g>
      <polygon points="370.8 47.5 343.9 105.2 317 47.5 293.9 47.5 333.2 126.6 333.2 178.5 354.6 178.5 354.6 126.6 393.9 47.5 370.8 47.5"/>
      <path d="M428.8,83.6c-12.6,0-22.3,3.5-29.2,10.5-6.9,7-10.3,16.9-10.3,29.7v15.2c0,12.9,3.4,22.9,10.3,30.1,6.9,7.1,16.6,10.7,29.2,10.7s22.3-3.5,29.2-10.6c6.9-7.1,10.3-17,10.3-29.9v-15.5c0-12.8-3.4-22.7-10.3-29.7-6.9-7-16.6-10.5-29.2-10.5ZM446.7,139.4c0,6.2-1.6,11.1-4.7,14.6-3.1,3.5-7.5,5.2-13.2,5.2s-10-1.7-13.2-5.2c-3.2-3.5-4.7-8.4-4.7-14.6v-15.5c0-6.2,1.6-11.1,4.7-14.5,3.2-3.4,7.6-5.1,13.2-5.1s10.1,1.7,13.2,5.1c3.1,3.4,4.7,8.3,4.7,14.5v15.5Z"/>
      <path d="M541.7,142.6c0,5.3-1.4,9.4-4.3,12.3-2.9,2.9-7,4.3-12.3,4.3s-9.5-1.5-12.4-4.6c-2.9-3-4.4-7.3-4.4-12.8v-56.9h-21.5v57.3c0,11.9,2.8,21.1,8.3,27.7,5.6,6.6,13.4,9.9,23.6,9.9s11.9-1.8,15.9-5.3c3.2-2.7,5.6-5.8,7.3-9.1v13h21.4v-93.5h-21.4v57.7Z"/>
      <path d="M661.6,119.6c5.5-3.2,9.9-7.7,13-13.5,3.1-5.8,4.7-12.5,4.7-20.3s-1.5-14.5-4.6-20.3c-3.1-5.8-7.4-10.2-13-13.4-5.6-3.2-12.1-4.8-19.5-4.8h-54.7v131.1h21.5v-54.1h21.2l28.8,54.1h25.9l-30.8-55.7c2.7-.8,5.3-1.8,7.6-3.2ZM609,68h32.5c4.6,0,8.3,1.6,11.1,4.9,2.8,3.3,4.2,7.6,4.2,12.9,0,5.4-1.5,9.7-4.2,13-2.8,3.3-6.5,4.9-11.1,4.9h-32.5v-35.8Z"/>
      <path d="M733.9,83.6c-7.3,0-13.9,1.2-19.8,3.6-5.9,2.4-10.8,5.7-14.4,10l14.3,12.1c2.8-2.1,5.9-3.7,9.4-4.8,3.5-1.1,7-1.7,10.6-1.7,5.6,0,10,1.4,13.1,4.3,3.1,2.9,4.6,6.9,4.6,12.2v4h-24.2c-10.8,0-18.9,2.3-24.3,6.9-5.4,4.6-8.1,11.6-8.1,20.9s2.7,17.1,8.1,21.8c5.4,4.7,13.4,7.1,24.1,7.1s8-.5,11.6-1.4c3.6-1,6.7-2.4,9.3-4.4,1.4-1.1,2.6-2.3,3.6-3.7v8.2h19.9v-60.1c0-11.1-3.3-19.6-9.9-25.7-6.6-6.1-15.9-9.1-27.9-9.1ZM746.7,160.2c-3.4,1.5-8.4,2.3-15.2,2.3s-9.8-.9-12.5-2.8c-2.8-1.9-4.1-4.8-4.1-8.7s1.1-6.5,3.2-8.3c2.1-1.8,5.3-2.7,9.6-2.7h24.2v13.2c0,3.2-1.7,5.5-5,7Z"/>
      <path d="M839.6,83.6c-5.9,0-11.1,1.5-15.3,4.6-3.4,2.4-6.2,5.6-8.7,9.7v-12.9h-21.5v93.5h21.5v-57.9c0-5.2,1.4-9.2,4.3-12.1,2.9-2.9,7-4.3,12.3-4.3s9.8,1.5,12.8,4.6c3,3,4.5,7.4,4.5,13v56.7h21.5v-56.8c0-12.1-2.7-21.5-8.2-28.2-5.5-6.6-13.2-10-23.3-10Z"/>
      <polygon points="953.4 178.5 977.6 178.5 944.1 120 973 84.9 949.1 84.9 915 128.7 915 47.5 893.5 47.5 893.5 178.5 915 178.5 915 155.4 930.4 136.8 953.4 178.5"/>
    </g>
  </g>
</svg>