<?xml version="1.0" encoding="UTF-8"?>
<svg id="Layer_1" xmlns="http://www.w3.org/2000/svg" version="1.1" xmlns:xlink="http://www.w3.org/1999/xlink" viewBox="0 0 1000 280.4">
  <!-- Generator: Adobe Illustrator 29.5.1, SVG Export Plug-In . SVG Version: 2.1.0 Build 141)  -->
  <defs>
    <style>
      .st0 {
        fill: url(#linear-gradient2);
      }

      .st1 {
        fill: #fff;
      }

      .st2 {
        fill: url(#linear-gradient1);
      }

      .st3 {
        fill: none;
      }

      .st4 {
        fill: url(#linear-gradient3);
      }

      .st5 {
        fill: #69ffea;
      }

      .st6 {
        fill: #3ecedb;
      }

      .st7 {
        fill: url(#linear-gradient);
      }
    </style>
    <linearGradient id="linear-gradient" x1="2208.8" y1="107.6" x2="2284.6" y2="111.3" gradientTransform="translate(-2145.8 0)" gradientUnits="userSpaceOnUse">
      <stop offset="0" stop-color="#fff" stop-opacity="0"/>
      <stop offset=".4" stop-color="#cdcdcd" stop-opacity=".5"/>
      <stop offset=".8" stop-color="#a7a7a7" stop-opacity=".9"/>
      <stop offset="1" stop-color="#999"/>
    </linearGradient>
    <linearGradient id="linear-gradient1" x1="93.1" y1="181.6" x2="158.6" y2="181.6" gradientUnits="userSpaceOnUse">
      <stop offset="0" stop-color="#999"/>
      <stop offset="0" stop-color="#9f9f9f" stop-opacity=".9"/>
      <stop offset=".3" stop-color="#c1c1c1" stop-opacity=".6"/>
      <stop offset=".5" stop-color="#dbdbdb" stop-opacity=".3"/>
      <stop offset=".7" stop-color="#efefef" stop-opacity=".2"/>
      <stop offset=".9" stop-color="#fafafa" stop-opacity="0"/>
      <stop offset="1" stop-color="#fff" stop-opacity="0"/>
    </linearGradient>
    <linearGradient id="linear-gradient2" x1="-706.3" y1="-287.1" x2="-630.5" y2="-283.4" gradientTransform="translate(-472.1 -114.4) rotate(-180)" xlink:href="#linear-gradient"/>
    <linearGradient id="linear-gradient3" x1="-2822" y1="-213.1" x2="-2756.5" y2="-213.1" gradientTransform="translate(-2617.9 -114.4) rotate(-180)" xlink:href="#linear-gradient1"/>
  </defs>
  <circle class="st6" cx="148.6" cy="140.2" r="122.1"/>
  <g>
    <g>
      <path class="st3" d="M103.7,148.8c-8,0-14.4,7-13.4,15.3.9,6.8,7,11.7,13.8,11.7h33.2v-33.5c-.9.5-1.8,1-2.7,1.5,0,0,0,0,0,0-1.2.6-2.4,1.1-3.7,1.7-.3.1-.6.2-.9.4-1.3.5-2.6.9-3.9,1.3,0,0-.1,0-.2,0-1.3.4-2.6.6-3.9.9-.3,0-.7.1-1,.2-1.4.2-2.8.4-4.2.5,0,0-.2,0-.3,0-1,0-1.9,0-2.9,0h-10.1Z"/>
      <path class="st5" d="M131.6,118.3c.4-.4.7-.9,1.1-1.4-.3.5-.7.9-1.1,1.4Z"/>
      <path class="st5" d="M134.3,114.4c.3-.5.5-1,.8-1.5-.2.5-.5,1-.8,1.5Z"/>
      <path class="st5" d="M133,116.4c.3-.5.6-1,.9-1.5-.3.5-.6,1-.9,1.5Z"/>
      <path class="st5" d="M137.3,105.2c0-.8.1-1.6.1-2.5,0,.8,0,1.7-.1,2.5Z"/>
      <path class="st5" d="M136.9,107.7c.1-.6.2-1.2.3-1.7,0,.6-.2,1.2-.3,1.7Z"/>
      <path class="st5" d="M135.4,112.3c.2-.5.4-1,.6-1.6-.2.5-.4,1.1-.6,1.6Z"/>
      <path class="st5" d="M136.2,110c.2-.5.3-1.1.4-1.6-.1.5-.3,1.1-.4,1.6Z"/>
      <path class="st5" d="M119.8,125.6c.5-.1,1-.3,1.4-.4-.5.2-1,.3-1.4.4Z"/>
      <path class="st5" d="M117.4,126c.5,0,1-.1,1.4-.3-.5.1-1,.2-1.4.3Z"/>
      <path class="st5" d="M115,126.3c.5,0,1,0,1.5,0-.5,0-1,0-1.5,0Z"/>
      <path class="st5" d="M128.1,121.5c.5-.3.9-.7,1.3-1.1-.4.4-.9.7-1.3,1.1Z"/>
      <path class="st5" d="M126.2,122.8c.5-.3.9-.6,1.4-.9-.4.3-.9.6-1.4.9Z"/>
      <path class="st5" d="M124.2,123.9c.5-.2,1-.5,1.4-.8-.5.3-.9.5-1.4.8Z"/>
      <path class="st5" d="M122,124.8c.5-.2,1-.4,1.4-.6-.5.2-1,.4-1.4.6Z"/>
      <path class="st5" d="M116.7,148.7c0,0,.2,0,.3,0,0,0-.2,0-.3,0Z"/>
      <path class="st5" d="M134.7,143.8s0,0,0,0c0,0,0,0,0,0Z"/>
      <path class="st5" d="M121.1,148.2c.3,0,.7-.1,1-.2-.3,0-.7.1-1,.2Z"/>
      <path class="st5" d="M130.1,145.8c.3-.1.6-.2.9-.4-.3.1-.6.2-.9.4Z"/>
      <path class="st5" d="M131.1,118.7c-.4.4-.8.8-1.2,1.2.4-.4.8-.8,1.2-1.2Z"/>
      <path class="st5" d="M126,147.2c0,0,.1,0,.2,0,0,0-.1,0-.2,0Z"/>
      <path class="st1" d="M126.2,147.1c1.3-.4,2.6-.8,3.9-1.3-1.3.5-2.6.9-3.9,1.3Z"/>
      <path class="st1" d="M125.6,123.2c.2-.1.4-.2.6-.4-.2.1-.4.3-.6.4Z"/>
      <path class="st1" d="M118.9,125.8c.3,0,.6-.2.9-.2-.3,0-.6.2-.9.2Z"/>
      <path class="st1" d="M127.6,121.9c.2-.1.4-.3.5-.4-.2.1-.4.3-.5.4Z"/>
      <path class="st1" d="M116.5,126.2c.3,0,.7,0,1-.2-.3,0-.7.1-1,.2Z"/>
      <path class="st1" d="M123.5,124.3c.2-.1.5-.2.7-.3-.2.1-.5.2-.7.3Z"/>
      <path class="st1" d="M121.2,125.1c.3,0,.5-.2.8-.3-.3,0-.5.2-.8.3Z"/>
      <path class="st1" d="M131,145.4c1.2-.5,2.5-1,3.7-1.7-1.2.6-2.4,1.1-3.7,1.7Z"/>
      <path class="st1" d="M122.1,148c1.3-.2,2.6-.5,3.9-.9-1.3.4-2.6.6-3.9.9Z"/>
      <path class="st1" d="M115,126.3c-.3,0-.7,0-1,0,.3,0,.7,0,1,0Z"/>
      <path class="st1" d="M136.7,108.4c0-.2.1-.5.2-.7,0,.2-.1.5-.2.7Z"/>
      <path class="st1" d="M136,110.7c0-.2.2-.4.2-.7,0,.2-.2.4-.2.7Z"/>
      <path class="st1" d="M137.2,105.9c0-.2,0-.4.1-.7,0,.2,0,.4-.1.7Z"/>
      <path class="st1" d="M129.9,119.9c-.2.1-.3.3-.5.4.2-.1.3-.3.5-.4Z"/>
      <path class="st1" d="M116.9,148.7c1.4,0,2.8-.3,4.2-.5-1.4.2-2.8.4-4.2.5Z"/>
      <path class="st1" d="M134,114.9c.1-.2.2-.4.3-.5-.1.2-.2.4-.3.5Z"/>
      <path class="st1" d="M135.1,112.9c0-.2.2-.4.3-.6,0,.2-.2.4-.3.6Z"/>
      <path class="st1" d="M132.7,116.9c.1-.2.3-.3.4-.5-.1.2-.2.3-.4.5Z"/>
      <path class="st1" d="M131.1,118.7c.1-.2.3-.3.4-.5-.1.2-.3.3-.4.5Z"/>
      <path class="st1" d="M159.9,82.1v20.6c0,26.2-21.9,47.3-48.4,46-24.8-1.2-43.7-22.6-43.7-47.3v-8c0-3.1,1.2-5.9,3.3-8,2-2,4.8-3.3,7.9-3.3,6.2,0,11.2,5,11.2,11.3v8.5c0,12.2,9.9,23.6,22,24.4,10.4.7,19.6-5.4,23.3-14.4,0-.2.1-.3.2-.5,1.1-2.7,1.7-5.6,1.7-8.7v-9.4c0-6.2,5-11.3,11.3-11.3h11.2Z"/>
      <path class="st7" d="M135.5,111.9c-4.5,13.9-17.6,23.9-33,23.9s-18.3-3.9-24.6-10.2c-6.2-6.2-10.1-14.8-10.2-24.2v-8c0-3.1,1.2-5.9,3.3-8,2-2,4.8-3.3,7.9-3.3,6.2,0,11.2,5,11.2,11.3v8.5c0,12.2,9.9,23.6,22,24.4,10.4.7,19.6-5.4,23.3-14.4Z"/>
      <path class="st1" d="M159.8,102.7v84.2c0,6.2-5,11.2-11.2,11.2h-43.9c-18.8,0-35.3-14.1-36.9-32.8-.6-7.2,1-14.1,4.1-19.9,2.2-4.2,5.3-7.9,8.9-10.9l1.8-1.5,2,.7,5.9,1.4,22.2,7.2s2.2,1.6,2.5,1.7c.3.1-1.5,4.8-1.5,4.8h-10.1c-7.9,0-14.2,6.8-13.4,14.8,0,.5.1.9.2,1.3,0,0,0,0,0,0,1.3,6.1,7.5,10.8,13.8,10.8h33.1v-33.5c13.5-8,22.5-22.8,22.5-39.6Z"/>
      <path class="st2" d="M159.8,175.8v11.2c0,6.2-5,11.2-11.2,11.2h-21.3c-10.2,0-19.5-4.2-26.2-10.8-5.9-5.9-9.8-13.6-10.6-22.4,1.3,6.1,7.5,10.8,13.8,10.8h55.6Z"/>
    </g>
    <g>
      <path class="st3" d="M193.6,131.5c8,0,14.4-7,13.4-15.3-.9-6.8-7-11.7-13.8-11.7h-33.2v33.5c.9-.5,1.8-1,2.7-1.5,0,0,0,0,0,0,1.2-.6,2.4-1.1,3.7-1.7.3-.1.6-.2.9-.4,1.3-.5,2.6-.9,3.9-1.3,0,0,.1,0,.2,0,1.3-.4,2.6-.6,3.9-.9.3,0,.7-.1,1-.2,1.4-.2,2.8-.4,4.2-.5,0,0,.2,0,.3,0,1,0,1.9,0,2.9,0h10.1Z"/>
      <path class="st5" d="M165.7,162.1c-.4.4-.7.9-1.1,1.4.3-.5.7-.9,1.1-1.4Z"/>
      <path class="st5" d="M162.9,166c-.3.5-.5,1-.8,1.5.2-.5.5-1,.8-1.5Z"/>
      <path class="st5" d="M164.2,164c-.3.5-.6,1-.9,1.5.3-.5.6-1,.9-1.5Z"/>
      <path class="st5" d="M160,175.1c0,.8-.1,1.6-.1,2.5,0-.8,0-1.7.1-2.5Z"/>
      <path class="st5" d="M160.4,172.7c-.1.6-.2,1.2-.3,1.7,0-.6.2-1.2.3-1.7Z"/>
      <path class="st5" d="M161.9,168.1c-.2.5-.4,1-.6,1.6.2-.5.4-1.1.6-1.6Z"/>
      <path class="st5" d="M161,170.3c-.2.5-.3,1.1-.4,1.6.1-.5.3-1.1.4-1.6Z"/>
      <path class="st5" d="M177.5,154.8c-.5.1-1,.3-1.4.4.5-.2,1-.3,1.4-.4Z"/>
      <path class="st5" d="M179.8,154.3c-.5,0-1,.1-1.4.3.5-.1,1-.2,1.4-.3Z"/>
      <path class="st5" d="M182.3,154.1c-.5,0-1,0-1.5,0,.5,0,1,0,1.5,0Z"/>
      <path class="st5" d="M169.1,158.9c-.5.3-.9.7-1.3,1.1.4-.4.9-.7,1.3-1.1Z"/>
      <path class="st5" d="M171,157.6c-.5.3-.9.6-1.4.9.4-.3.9-.6,1.4-.9Z"/>
      <path class="st5" d="M173.1,156.4c-.5.2-1,.5-1.4.8.5-.3.9-.5,1.4-.8Z"/>
      <path class="st5" d="M175.2,155.5c-.5.2-1,.4-1.4.6.5-.2,1-.4,1.4-.6Z"/>
      <path class="st5" d="M180.6,131.6c0,0-.2,0-.3,0,0,0,.2,0,.3,0Z"/>
      <path class="st5" d="M162.6,136.6s0,0,0,0c0,0,0,0,0,0Z"/>
      <path class="st5" d="M176.1,132.1c-.3,0-.7.1-1,.2.3,0,.7-.1,1-.2Z"/>
      <path class="st5" d="M167.2,134.5c-.3.1-.6.2-.9.4.3-.1.6-.2.9-.4Z"/>
      <path class="st5" d="M166.1,161.6c.4-.4.8-.8,1.2-1.2-.4.4-.8.8-1.2,1.2Z"/>
      <path class="st5" d="M171.2,133.2c0,0-.1,0-.2,0,0,0,.1,0,.2,0Z"/>
      <path class="st1" d="M171.1,133.2c-1.3.4-2.6.8-3.9,1.3,1.3-.5,2.6-.9,3.9-1.3Z"/>
      <path class="st1" d="M171.6,157.2c-.2.1-.4.2-.6.4.2-.1.4-.3.6-.4Z"/>
      <path class="st1" d="M178.4,154.6c-.3,0-.6.2-.9.2.3,0,.6-.2.9-.2Z"/>
      <path class="st1" d="M169.6,158.5c-.2.1-.4.3-.5.4.2-.1.4-.3.5-.4Z"/>
      <path class="st1" d="M180.8,154.2c-.3,0-.7,0-1,.2.3,0,.7-.1,1-.2Z"/>
      <path class="st1" d="M173.8,156.1c-.2.1-.5.2-.7.3.2-.1.5-.2.7-.3Z"/>
      <path class="st1" d="M176,155.2c-.3,0-.5.2-.8.3.3,0,.5-.2.8-.3Z"/>
      <path class="st1" d="M166.2,134.9c-1.2.5-2.5,1-3.7,1.7,1.2-.6,2.4-1.1,3.7-1.7Z"/>
      <path class="st1" d="M175.1,132.3c-1.3.2-2.6.5-3.9.9,1.3-.4,2.6-.6,3.9-.9Z"/>
      <path class="st1" d="M182.3,154.1c.3,0,.7,0,1,0-.3,0-.7,0-1,0Z"/>
      <path class="st1" d="M160.6,172c0,.2-.1.5-.2.7,0-.2.1-.5.2-.7Z"/>
      <path class="st1" d="M161.3,169.7c0,.2-.2.4-.2.7,0-.2.2-.4.2-.7Z"/>
      <path class="st1" d="M160.1,174.4c0,.2,0,.4-.1.7,0-.2,0-.4.1-.7Z"/>
      <path class="st1" d="M167.3,160.4c.2-.1.3-.3.5-.4-.2.1-.3.3-.5.4Z"/>
      <path class="st1" d="M180.3,131.7c-1.4,0-2.8.3-4.2.5,1.4-.2,2.8-.4,4.2-.5Z"/>
      <path class="st1" d="M163.3,165.4c-.1.2-.2.4-.3.5.1-.2.2-.4.3-.5Z"/>
      <path class="st1" d="M162.2,167.5c0,.2-.2.4-.3.6,0-.2.2-.4.3-.6Z"/>
      <path class="st1" d="M164.6,163.5c-.1.2-.3.3-.4.5.1-.2.2-.3.4-.5Z"/>
      <path class="st1" d="M166.1,161.6c-.1.2-.3.3-.4.5.1-.2.3-.3.4-.5Z"/>
      <path class="st1" d="M137.4,198.2v-20.6c0-26.2,21.9-47.3,48.4-46,24.8,1.2,43.7,22.6,43.7,47.3v8c0,3.1-1.2,5.9-3.3,8-2,2-4.8,3.3-7.9,3.3-6.2,0-11.2-5-11.2-11.3v-8.5c0-12.2-9.9-23.6-22-24.4-10.4-.7-19.6,5.4-23.3,14.4,0,.2-.1.3-.2.5-1.1,2.7-1.7,5.6-1.7,8.7v9.4c0,6.2-5,11.3-11.3,11.3h-11.2Z"/>
      <path class="st0" d="M161.7,168.4c4.5-13.9,17.6-23.9,33-23.9s18.3,3.9,24.6,10.2c6.2,6.2,10.1,14.8,10.2,24.2v8c0,3.1-1.2,5.9-3.3,8-2,2-4.8,3.3-7.9,3.3-6.2,0-11.2-5-11.2-11.3v-8.5c0-12.2-9.9-23.6-22-24.4-10.4-.7-19.6,5.4-23.3,14.4Z"/>
      <path class="st1" d="M137.4,177.6v-84.2c0-6.2,5-11.2,11.2-11.2h43.9c18.8,0,35.3,14.1,36.9,32.8.6,7.2-1,14.1-4.1,19.9-2.2,4.2-5.3,7.9-8.9,10.9l-1.8,1.5-2-.7-5.9-1.4-22.2-7.2s-2.2-1.6-2.5-1.7c-.3-.1,1.5-4.8,1.5-4.8h10.1c7.9,0,14.2-6.8,13.4-14.8,0-.5-.1-.9-.2-1.3,0,0,0,0,0,0-1.3-6.1-7.5-10.8-13.8-10.8h-33.1v33.5c-13.5,8-22.5,22.8-22.5,39.6Z"/>
      <path class="st4" d="M137.4,104.6v-11.2c0-6.2,5-11.2,11.2-11.2h21.3c10.2,0,19.5,4.2,26.2,10.8,5.9,5.9,9.8,13.6,10.6,22.4-1.3-6.1-7.5-10.8-13.8-10.8h-55.6Z"/>
    </g>
  </g>
  <g>
    <g>
      <path d="M357.3,202.9v28.8h-3.4l-15.7-22.6h-.3v22.6h-3.5v-28.8h3.4l15.7,22.7h.3v-22.7h3.4Z"/>
      <path d="M368.3,231.7v-28.8h17.4v3.1h-13.9v9.7h13v3.1h-13v9.8h14.1v3.1h-17.6Z"/>
      <path d="M397.6,202.9l7.4,12h.2l7.4-12h4.1l-9.1,14.4,9.1,14.4h-4.1l-7.4-11.8h-.2l-7.4,11.8h-4.1l9.3-14.4-9.3-14.4h4.1Z"/>
      <path d="M423.7,206v-3.1h21.6v3.1h-9.1v25.7h-3.5v-25.7h-9.1Z"/>
      <path d="M463.6,215.8v3.1h-12.6v-3.1h12.6Z"/>
      <path d="M493.6,211.9c-.3-.9-.7-1.8-1.2-2.6-.5-.8-1.1-1.4-1.8-1.9-.7-.5-1.5-.9-2.3-1.2-.9-.3-1.8-.4-2.9-.4-1.7,0-3.3.4-4.7,1.3-1.4.9-2.5,2.2-3.3,3.9-.8,1.7-1.2,3.8-1.2,6.3s.4,4.6,1.2,6.3c.8,1.7,2,3,3.4,3.9,1.4.9,3,1.3,4.8,1.3s3.1-.4,4.4-1.1,2.2-1.7,3-3c.7-1.3,1.1-2.8,1.1-4.6l1.1.2h-8.7v-3.1h11v3.1c0,2.4-.5,4.4-1.5,6.2-1,1.8-2.4,3.1-4.2,4.1-1.8,1-3.8,1.4-6.1,1.4s-4.8-.6-6.7-1.8c-1.9-1.2-3.4-2.9-4.5-5.1-1.1-2.2-1.6-4.8-1.6-7.9s.3-4.3.9-6.1c.6-1.8,1.5-3.4,2.6-4.7,1.1-1.3,2.5-2.3,4-3,1.5-.7,3.2-1,5.1-1s2.9.2,4.3.7c1.3.5,2.5,1.1,3.5,1.9,1,.8,1.9,1.8,2.6,3,.7,1.1,1.2,2.4,1.4,3.8h-3.6Z"/>
      <path d="M507.3,231.7v-28.8h17.4v3.1h-13.9v9.7h13v3.1h-13v9.8h14.1v3.1h-17.6Z"/>
      <path d="M557.7,202.9v28.8h-3.4l-15.7-22.6h-.3v22.6h-3.5v-28.8h3.4l15.7,22.7h.3v-22.7h3.4Z"/>
      <path d="M599.5,210.1c-.2-1.4-.9-2.5-2.1-3.3-1.2-.8-2.7-1.2-4.4-1.2s-2.4.2-3.3.6c-1,.4-1.7,1-2.2,1.7-.5.7-.8,1.5-.8,2.5s.2,1.4.6,2c.4.5.8,1,1.4,1.4.6.4,1.2.7,1.8.9.6.2,1.2.4,1.8.6l2.9.8c.7.2,1.6.5,2.5.8.9.3,1.8.8,2.7,1.4.8.6,1.5,1.4,2.1,2.3.6.9.8,2.1.8,3.4s-.4,3-1.2,4.2c-.8,1.3-2,2.3-3.5,3-1.6.7-3.4,1.1-5.6,1.1s-3.8-.3-5.3-1c-1.5-.7-2.7-1.6-3.5-2.8-.9-1.2-1.3-2.6-1.5-4.1h3.6c0,1.1.5,2,1.1,2.7.6.7,1.5,1.2,2.4,1.6,1,.3,2.1.5,3.2.5s2.5-.2,3.6-.7c1.1-.4,1.9-1,2.5-1.8.6-.8.9-1.7.9-2.7s-.3-1.7-.8-2.3c-.5-.6-1.2-1.1-2.1-1.5-.9-.4-1.8-.7-2.8-1l-3.5-1c-2.3-.6-4-1.6-5.3-2.8-1.3-1.2-2-2.8-2-4.7s.4-3,1.3-4.2c.9-1.2,2.1-2.1,3.5-2.8,1.5-.7,3.1-1,5-1s3.5.3,4.9,1c1.4.7,2.6,1.6,3.4,2.7.8,1.1,1.3,2.4,1.3,3.9h-3.4Z"/>
      <path d="M612.9,231.7v-28.8h17.4v3.1h-13.9v9.7h13v3.1h-13v9.8h14.1v3.1h-17.6Z"/>
      <path d="M641.7,231.7h-3.7l10.6-28.8h3.6l10.6,28.8h-3.7l-8.6-24.2h-.2l-8.6,24.2ZM643.1,220.5h14.7v3.1h-14.7v-3.1Z"/>
      <path d="M671.3,231.7v-28.8h9.7c2.2,0,4.1.4,5.5,1.1,1.4.8,2.5,1.8,3.2,3.1s1,2.8,1,4.5-.3,3.2-1,4.5c-.7,1.3-1.8,2.3-3.2,3.1-1.4.7-3.3,1.1-5.5,1.1h-7.9v-3.1h7.8c1.5,0,2.8-.2,3.7-.7.9-.5,1.6-1.1,2.1-1.9.4-.8.6-1.8.6-3s-.2-2.2-.6-3-1.1-1.5-2.1-2c-.9-.5-2.2-.7-3.8-.7h-6.1v25.7h-3.5ZM684.8,218.8l7.1,12.9h-4l-7-12.9h3.9Z"/>
      <path d="M723.7,211.9h-3.5c-.2-1-.6-1.9-1.1-2.6-.5-.8-1.1-1.4-1.9-1.9-.7-.5-1.5-.9-2.4-1.2-.9-.3-1.8-.4-2.8-.4-1.7,0-3.3.4-4.7,1.3-1.4.9-2.5,2.2-3.4,3.9-.8,1.7-1.2,3.8-1.2,6.3s.4,4.6,1.2,6.3c.8,1.7,1.9,3,3.4,3.9,1.4.9,3,1.3,4.7,1.3s1.9-.1,2.8-.4c.9-.3,1.7-.7,2.4-1.2s1.3-1.2,1.9-1.9c.5-.8.9-1.6,1.1-2.6h3.5c-.3,1.5-.7,2.8-1.4,4-.7,1.2-1.6,2.1-2.6,3-1,.8-2.2,1.4-3.5,1.8-1.3.4-2.6.6-4.1.6-2.5,0-4.6-.6-6.6-1.8-1.9-1.2-3.4-2.9-4.5-5.1-1.1-2.2-1.6-4.8-1.6-7.9s.5-5.7,1.6-7.9c1.1-2.2,2.6-3.9,4.5-5.1,1.9-1.2,4.1-1.8,6.6-1.8s2.8.2,4.1.6c1.3.4,2.4,1,3.5,1.8,1,.8,1.9,1.8,2.6,3,.7,1.2,1.2,2.5,1.4,4Z"/>
      <path d="M733.3,231.7v-28.8h3.5v12.8h15.4v-12.8h3.5v28.8h-3.5v-12.9h-15.4v12.9h-3.5Z"/>
      <path d="M781.6,231.7v-28.8h17.4v3.1h-13.9v9.7h13v3.1h-13v9.8h14.1v3.1h-17.6Z"/>
      <path d="M811,202.9l7.4,12h.2l7.4-12h4.1l-9.1,14.4,9.1,14.4h-4.1l-7.4-11.8h-.2l-7.4,11.8h-4.1l9.3-14.4-9.3-14.4h4.1Z"/>
      <path d="M838.6,231.7v-28.8h9.7c2.3,0,4.1.4,5.5,1.2,1.4.8,2.5,1.9,3.2,3.3.7,1.4,1,2.9,1,4.6s-.3,3.2-1,4.6c-.7,1.4-1.8,2.5-3.2,3.3-1.4.8-3.3,1.2-5.5,1.2h-7v-3.1h6.9c1.5,0,2.8-.3,3.7-.8.9-.5,1.6-1.3,2-2.2.4-.9.6-1.9.6-3.1s-.2-2.2-.6-3.1c-.4-.9-1.1-1.6-2.1-2.1-.9-.5-2.2-.8-3.8-.8h-6.1v25.7h-3.5Z"/>
      <path d="M867.7,231.7v-28.8h17.4v3.1h-13.9v9.7h13v3.1h-13v9.8h14.1v3.1h-17.6Z"/>
      <path d="M895.4,231.7v-28.8h9.7c2.3,0,4.1.4,5.5,1.1,1.4.8,2.5,1.8,3.2,3.1.7,1.3,1,2.8,1,4.5s-.3,3.2-1,4.5c-.7,1.3-1.8,2.3-3.2,3.1-1.4.7-3.3,1.1-5.5,1.1h-7.9v-3.1h7.8c1.5,0,2.8-.2,3.7-.7.9-.5,1.6-1.1,2.1-1.9.4-.8.6-1.8.6-3s-.2-2.2-.6-3c-.4-.9-1.1-1.5-2.1-2-.9-.5-2.2-.7-3.8-.7h-6.1v25.7h-3.5ZM908.9,218.8l7.1,12.9h-4l-7-12.9h3.9Z"/>
      <path d="M923.1,206v-3.1h21.6v3.1h-9.1v25.7h-3.5v-25.7h-9.1Z"/>
      <path d="M969.7,210.1c-.2-1.4-.9-2.5-2.1-3.3-1.2-.8-2.7-1.2-4.4-1.2s-2.4.2-3.3.6c-1,.4-1.7,1-2.2,1.7-.5.7-.8,1.5-.8,2.5s.2,1.4.6,2c.4.5.8,1,1.4,1.4.6.4,1.2.7,1.8.9.6.2,1.2.4,1.8.6l2.9.8c.7.2,1.6.5,2.5.8.9.3,1.8.8,2.7,1.4s1.5,1.4,2.1,2.3c.6.9.8,2.1.8,3.4s-.4,3-1.2,4.2c-.8,1.3-2,2.3-3.5,3-1.5.7-3.4,1.1-5.6,1.1s-3.8-.3-5.3-1c-1.5-.7-2.7-1.6-3.5-2.8-.9-1.2-1.3-2.6-1.5-4.1h3.6c0,1.1.5,2,1.1,2.7.6.7,1.5,1.2,2.4,1.6,1,.3,2.1.5,3.2.5s2.5-.2,3.6-.7c1.1-.4,1.9-1,2.5-1.8.6-.8.9-1.7.9-2.7s-.3-1.7-.8-2.3c-.5-.6-1.2-1.1-2.1-1.5-.9-.4-1.8-.7-2.8-1l-3.5-1c-2.3-.6-4-1.6-5.3-2.8-1.3-1.2-2-2.8-2-4.7s.4-3,1.3-4.2c.9-1.2,2.1-2.1,3.5-2.8,1.5-.7,3.1-1,5-1s3.5.3,4.9,1c1.4.7,2.6,1.6,3.4,2.7.8,1.1,1.3,2.4,1.3,3.9h-3.4Z"/>
    </g>
    <g>
      <polygon points="371.6 48.2 344.9 105.5 318.3 48.2 295.3 48.2 334.3 126.7 334.3 178.2 355.6 178.2 355.6 126.7 394.5 48.2 371.6 48.2"/>
      <path d="M429.1,84c-12.5,0-22.1,3.5-28.9,10.5-6.8,7-10.2,16.8-10.2,29.5v15.1c0,12.8,3.4,22.8,10.2,29.8,6.8,7.1,16.5,10.6,28.9,10.6s22.1-3.5,28.9-10.5c6.8-7,10.2-16.9,10.2-29.6v-15.4c0-12.7-3.4-22.5-10.2-29.5-6.8-7-16.5-10.5-28.9-10.5ZM446.9,139.4c0,6.2-1.6,11-4.6,14.5-3.1,3.5-7.5,5.2-13.1,5.2s-10-1.7-13.1-5.2c-3.1-3.5-4.7-8.3-4.7-14.5v-15.4c0-6.2,1.6-11,4.7-14.4,3.1-3.4,7.5-5.1,13.1-5.1s10,1.7,13.1,5.1c3.1,3.4,4.6,8.2,4.6,14.4v15.4Z"/>
      <path d="M541.2,142.6c0,5.2-1.4,9.3-4.3,12.2-2.9,2.9-6.9,4.3-12.2,4.3s-9.4-1.5-12.3-4.5c-2.9-3-4.4-7.3-4.4-12.7v-56.4h-21.4v56.9c0,11.8,2.8,21,8.3,27.5,5.5,6.5,13.3,9.8,23.4,9.8s11.8-1.7,15.8-5.2c3.1-2.7,5.5-5.7,7.2-9v12.9h21.3v-92.8h-21.3v57.2Z"/>
      <path d="M660.1,119.8c5.5-3.2,9.8-7.6,12.9-13.4,3.1-5.7,4.6-12.4,4.6-20.1s-1.5-14.4-4.6-20.1c-3.1-5.7-7.4-10.2-12.9-13.3-5.5-3.2-12-4.7-19.4-4.7h-54.3v130.1h21.4v-53.6h21l28.5,53.6h25.7l-30.6-55.3c2.7-.8,5.2-1.8,7.6-3.2ZM607.9,68.6h32.3c4.6,0,8.3,1.6,11,4.9,2.8,3.2,4.2,7.5,4.2,12.8,0,5.4-1.5,9.7-4.2,12.9-2.7,3.2-6.4,4.9-11,4.9h-32.3v-35.5Z"/>
      <path d="M731.8,84c-7.2,0-13.8,1.2-19.7,3.5-5.9,2.4-10.7,5.6-14.3,9.9l14.2,12c2.7-2.1,5.8-3.7,9.3-4.8,3.5-1.1,7-1.7,10.5-1.7,5.6,0,9.9,1.4,13,4.3,3.1,2.9,4.6,6.9,4.6,12.1v3.9h-24c-10.7,0-18.8,2.3-24.1,6.8-5.4,4.6-8,11.5-8,20.7s2.7,16.9,8,21.6c5.3,4.7,13.3,7.1,23.9,7.1s8-.5,11.5-1.4c3.6-1,6.7-2.4,9.3-4.3,1.4-1.1,2.6-2.3,3.5-3.7v8.1h19.8v-59.6c0-11-3.3-19.5-9.8-25.5-6.5-6-15.8-9-27.7-9ZM744.5,160c-3.3,1.5-8.4,2.2-15.1,2.2s-9.7-.9-12.4-2.8c-2.7-1.9-4.1-4.8-4.1-8.6s1.1-6.4,3.2-8.2c2.1-1.8,5.3-2.7,9.5-2.7h24v13.1c0,3.2-1.7,5.5-5,7Z"/>
      <path d="M836.6,84c-5.9,0-11,1.5-15.2,4.6-3.3,2.4-6.2,5.6-8.6,9.6v-12.8h-21.4v92.8h21.4v-57.4c0-5.1,1.4-9.1,4.3-12,2.9-2.9,6.9-4.3,12.2-4.3s9.7,1.5,12.7,4.5c3,3,4.5,7.3,4.5,12.9v56.2h21.4v-56.3c0-12-2.7-21.4-8.1-27.9-5.4-6.6-13.1-9.9-23.1-9.9Z"/>
      <polygon points="949.5 178.2 973.5 178.2 940.3 120.2 969 85.4 945.3 85.4 911.5 128.8 911.5 48.2 890.1 48.2 890.1 178.2 911.5 178.2 911.5 155.2 926.7 136.8 949.5 178.2"/>
    </g>
  </g>
</svg>